<svg version="1.1" xmlns="http://www.w3.org/2000/svg" xmlns:xlink="http://www.w3.org/1999/xlink" width="1030" height="390"><defs/><g><g transform="translate(2,-14) scale(1,1)"><path fill="#ffffff" stroke="none" d="M 97.72331516335227 145.68 C 97.72331516335227 140.886167936 101.60915748829773 137 106.402587890625 137 C 111.19601829295227 137 115.08186061789773 140.886167936 115.08186061789773 145.68 C 115.08186061789773 150.47383206400002 111.19601829295227 154.36 106.402587890625 154.36 C 101.60915748829773 154.36 97.72331516335227 150.47383206400002 97.72331516335227 145.68 Z"/></g><g transform="translate(2,-14) scale(1,1)"><path fill="none" stroke="#243f60" d="M 97.72331516335227 145.68 C 97.72331516335227 140.886167936 101.60915748829773 137 106.402587890625 137 C 111.19601829295227 137 115.08186061789773 140.886167936 115.08186061789773 145.68 C 115.08186061789773 150.47383206400002 111.19601829295227 154.36 106.402587890625 154.36 C 101.60915748829773 154.36 97.72331516335227 150.47383206400002 97.72331516335227 145.68 Z" stroke-miterlimit="10"/></g><g transform="translate(2,-14) scale(1,1)"><path fill="none" stroke="#243f60" d="M 106.402587890625 154.36 L 106.402587890625 171.64" stroke-miterlimit="10"/></g><g transform="translate(2,-14) scale(1,1)"><path fill="none" stroke="#243f60" d="M 97.21276970880682 160.84 L 115.59240607244318 160.84" stroke-miterlimit="10"/></g><g transform="translate(2,-14) scale(1,1)"><path fill="none" stroke="#243f60" d="M 106.402587890625 171.64 L 93.63895152698863 189" stroke-miterlimit="10"/></g><g transform="translate(2,-14) scale(1,1)"><path fill="none" stroke="#243f60" d="M 106.402587890625 171.64 L 119.16622425426137 189" stroke-miterlimit="10"/></g><g transform="translate(2,-14) scale(1,1)"><g><path fill="none" stroke="none"/><text fill="#000000" stroke="none" font-family="bahnschrift" font-size="13px" font-style="normal" font-weight="bold" text-decoration="none" x="84.5" y="209.5">Thủ thư</text></g></g><g transform="translate(2,-14) scale(1,1)"><path fill="#C0C0C0" stroke="none" d="M 249 104 C 249 94.6111584 279.6684912 87 317.5 87 C 355.3315088 87 386 94.6111584 386 104 C 386 113.3888416 355.3315088 121 317.5 121 C 279.6684912 121 249 113.3888416 249 104 Z" opacity="0.2"/></g><g transform="translate(2,-14) scale(1,1)"><path fill="#ffffff" stroke="none" d="M 242 97 C 242 87.6111584 272.6684912 80 310.5 80 C 348.3315088 80 379 87.6111584 379 97 C 379 106.3888416 348.3315088 114 310.5 114 C 272.6684912 114 242 106.3888416 242 97 Z"/></g><g transform="translate(2,-14) scale(1,1)"><path fill="none" stroke="#243f60" d="M 242 97 C 242 87.6111584 272.6684912 80 310.5 80 C 348.3315088 80 379 87.6111584 379 97 C 379 106.3888416 348.3315088 114 310.5 114 C 272.6684912 114 242 106.3888416 242 97 Z" stroke-miterlimit="10"/></g><g transform="translate(2,-14) scale(1,1)"><g><path fill="none" stroke="none"/><text fill="#000000" stroke="none" font-family="bahnschrift" font-size="13px" font-style="normal" font-weight="bold" text-decoration="none" x="266.418701171875" y="104">Quản lý độc giả</text></g></g><g transform="translate(2,-14) scale(1,1)"><path fill="#C0C0C0" stroke="none" d="M 244 173 C 244 163.6111584 276.6832096 156 317 156 C 357.3167904 156 390 163.6111584 390 173 C 390 182.3888416 357.3167904 190 317 190 C 276.6832096 190 244 182.3888416 244 173 Z" opacity="0.2"/></g><g transform="translate(2,-14) scale(1,1)"><path fill="#ffffff" stroke="none" d="M 237 166 C 237 156.6111584 269.6832096 149 310 149 C 350.3167904 149 383 156.6111584 383 166 C 383 175.3888416 350.3167904 183 310 183 C 269.6832096 183 237 175.3888416 237 166 Z"/></g><g transform="translate(2,-14) scale(1,1)"><path fill="none" stroke="#243f60" d="M 237 166 C 237 156.6111584 269.6832096 149 310 149 C 350.3167904 149 383 156.6111584 383 166 C 383 175.3888416 350.3167904 183 310 183 C 269.6832096 183 237 175.3888416 237 166 Z" stroke-miterlimit="10"/></g><g transform="translate(2,-14) scale(1,1)"><g><path fill="none" stroke="none"/><text fill="#000000" stroke="none" font-family="bahnschrift" font-size="13px" font-style="normal" font-weight="bold" text-decoration="none" x="262.99560546875" y="173">Quản lí tựa sách</text></g></g><g transform="translate(2,-14) scale(1,1)"><path fill="#C0C0C0" stroke="none" d="M 243 242 C 243 232.6111584 276.1309248 225 317 225 C 357.8690752 225 391 232.6111584 391 242 C 391 251.3888416 357.8690752 259 317 259 C 276.1309248 259 243 251.3888416 243 242 Z" opacity="0.2"/></g><g transform="translate(2,-14) scale(1,1)"><path fill="#ffffff" stroke="none" d="M 236 235 C 236 225.6111584 269.1309248 218 310 218 C 350.8690752 218 384 225.6111584 384 235 C 384 244.3888416 350.8690752 252 310 252 C 269.1309248 252 236 244.3888416 236 235 Z"/></g><g transform="translate(2,-14) scale(1,1)"><path fill="none" stroke="#243f60" d="M 236 235 C 236 225.6111584 269.1309248 218 310 218 C 350.8690752 218 384 225.6111584 384 235 C 384 244.3888416 350.8690752 252 310 252 C 269.1309248 252 236 244.3888416 236 235 Z" stroke-miterlimit="10"/></g><g transform="translate(2,-14) scale(1,1)"><g><path fill="none" stroke="none"/><text fill="#000000" stroke="none" font-family="bahnschrift" font-size="13px" font-style="normal" font-weight="bold" text-decoration="none" x="262.027587890625" y="242">Quản lí đầu sách</text></g></g><g transform="translate(2,-14) scale(1,1)"><path fill="none" stroke="#243f60" d="M 134 164 L 263 115" stroke-miterlimit="10"/></g><g transform="translate(2,-14) scale(1,1)"><path fill="none" stroke="#243f60" d="M 134 174 L 236 169" stroke-miterlimit="10"/></g><g transform="translate(2,-14) scale(1,1)"><path fill="none" stroke="#243f60" d="M 134 183 L 249 217" stroke-miterlimit="10"/></g><g transform="translate(2,-14) scale(1,1)"><path fill="#C0C0C0" stroke="none" d="M 519 102 C 519 92.6111584 561.7568016 85 614.5 85 C 667.2431984 85 710 92.6111584 710 102 C 710 111.3888416 667.2431984 119 614.5 119 C 561.7568016 119 519 111.3888416 519 102 Z" opacity="0.2"/></g><g transform="translate(2,-14) scale(1,1)"><path fill="#ffffff" stroke="none" d="M 512 95 C 512 85.6111584 554.7568016 78 607.5 78 C 660.2431984 78 703 85.6111584 703 95 C 703 104.3888416 660.2431984 112 607.5 112 C 554.7568016 112 512 104.3888416 512 95 Z"/></g><g transform="translate(2,-14) scale(1,1)"><path fill="none" stroke="#243f60" d="M 512 95 C 512 85.6111584 554.7568016 78 607.5 78 C 660.2431984 78 703 85.6111584 703 95 C 703 104.3888416 660.2431984 112 607.5 112 C 554.7568016 112 512 104.3888416 512 95 Z" stroke-miterlimit="10"/></g><g transform="translate(2,-14) scale(1,1)"><g><path fill="none" stroke="none"/><text fill="#000000" stroke="none" font-family="bahnschrift" font-size="13px" font-style="normal" font-weight="bold" text-decoration="none" x="569.17919921875" y="102">Xử lý yêu cầu</text></g></g><g transform="translate(2,-14) scale(1,1)"><path fill="none" stroke="#243f60" d="M 380 97 L 511 96" stroke-miterlimit="10" stroke-dasharray="3"/></g><g transform="translate(2,-14) scale(1,1)"><path fill="none" stroke="#243f60" d="M 500.8697540145421 100.28697052405468 L 511 96 L 500.80548844028897 91.86818029690082" stroke-miterlimit="10"/></g><g transform="translate(2,-14) scale(1,1)"><g><path fill="none" stroke="none"/><text fill="#000000" stroke="none" font-family="bahnschrift" font-size="13px" font-style="normal" font-weight="normal" text-decoration="none" x="417.8427734375" y="72.5">«include»</text></g></g><g transform="translate(2,-14) scale(1,1)"><path fill="#C0C0C0" stroke="none" d="M 841 48 C 841 38.6111584 876.5933583999999 31 920.5 31 C 964.4066416000001 31 1000 38.6111584 1000 48 C 1000 57.3888416 964.4066416000001 65 920.5 65 C 876.5933583999999 65 841 57.3888416 841 48 Z" opacity="0.2"/></g><g transform="translate(2,-14) scale(1,1)"><path fill="#ffffff" stroke="none" d="M 834 41 C 834 31.6111584 869.5933583999999 24 913.5 24 C 957.4066416000001 24 993 31.6111584 993 41 C 993 50.3888416 957.4066416000001 58 913.5 58 C 869.5933583999999 58 834 50.3888416 834 41 Z"/></g><g transform="translate(2,-14) scale(1,1)"><path fill="none" stroke="#243f60" d="M 834 41 C 834 31.6111584 869.5933583999999 24 913.5 24 C 957.4066416000001 24 993 31.6111584 993 41 C 993 50.3888416 957.4066416000001 58 913.5 58 C 869.5933583999999 58 834 50.3888416 834 41 Z" stroke-miterlimit="10"/></g><g transform="translate(2,-14) scale(1,1)"><g><path fill="none" stroke="none"/><text fill="#000000" stroke="none" font-family="bahnschrift" font-size="13px" font-style="normal" font-weight="bold" text-decoration="none" x="874.706298828125" y="48">Sửa thông tin</text></g></g><g transform="translate(2,-14) scale(1,1)"><path fill="#C0C0C0" stroke="none" d="M 839 104 C 839 94.6111584 880.6375136 87 932 87 C 983.3624864 87 1025 94.6111584 1025 104 C 1025 113.3888416 983.3624864 121 932 121 C 880.6375136 121 839 113.3888416 839 104 Z" opacity="0.2"/></g><g transform="translate(2,-14) scale(1,1)"><path fill="#ffffff" stroke="none" d="M 832 97 C 832 87.6111584 873.6375136 80 925 80 C 976.3624864 80 1018 87.6111584 1018 97 C 1018 106.3888416 976.3624864 114 925 114 C 873.6375136 114 832 106.3888416 832 97 Z"/></g><g transform="translate(2,-14) scale(1,1)"><path fill="none" stroke="#243f60" d="M 832 97 C 832 87.6111584 873.6375136 80 925 80 C 976.3624864 80 1018 87.6111584 1018 97 C 1018 106.3888416 976.3624864 114 925 114 C 873.6375136 114 832 106.3888416 832 97 Z" stroke-miterlimit="10"/></g><g transform="translate(2,-14) scale(1,1)"><g><path fill="none" stroke="none"/><text fill="#000000" stroke="none" font-family="bahnschrift" font-size="13px" font-style="normal" font-weight="bold" text-decoration="none" x="877.313232421875" y="104">Chi tiết thông tin</text></g></g><g transform="translate(2,-14) scale(1,1)"><path fill="none" stroke="#243f60" d="M 833 55 L 704 78" stroke-miterlimit="10" stroke-dasharray="3"/></g><g transform="translate(2,-14) scale(1,1)"><path fill="none" stroke="#243f60" d="M 713.2660144409214 72.07201751178049 L 704 78 L 714.7437782619231 80.36034502957284" stroke-miterlimit="10"/></g><g transform="translate(2,-14) scale(1,1)"><g><path fill="none" stroke="none"/><text fill="#000000" stroke="none" font-family="bahnschrift" font-size="13px" font-style="normal" font-weight="normal" text-decoration="none" x="756.2236328125" y="83.5">«extend»</text></g></g><g transform="translate(2,-14) scale(1,1)"><path fill="none" stroke="#243f60" d="M 831 96 L 704 96" stroke-miterlimit="10" stroke-dasharray="3"/></g><g transform="translate(2,-14) scale(1,1)"><path fill="none" stroke="#243f60" d="M 714.1626748576241 91.79048224398402 L 704 96 L 714.1626748576241 100.20951775601598" stroke-miterlimit="10"/></g><g transform="translate(2,-14) scale(1,1)"><g><path fill="none" stroke="none"/><text fill="#000000" stroke="none" font-family="bahnschrift" font-size="13px" font-style="normal" font-weight="normal" text-decoration="none" x="748.2236328125" y="115.5">«extend»</text></g></g><g transform="translate(2,-14) scale(1,1)"><path fill="#C0C0C0" stroke="none" d="M 47 288 C 47 278.6111584 82.3695008 271 126 271 C 169.6304992 271 205 278.6111584 205 288 C 205 297.3888416 169.6304992 305 126 305 C 82.3695008 305 47 297.3888416 47 288 Z" opacity="0.2"/></g><g transform="translate(2,-14) scale(1,1)"><path fill="#ffffff" stroke="none" d="M 40 281 C 40 271.6111584 75.3695008 264 119 264 C 162.6304992 264 198 271.6111584 198 281 C 198 290.3888416 162.6304992 298 119 298 C 75.3695008 298 40 290.3888416 40 281 Z"/></g><g transform="translate(2,-14) scale(1,1)"><path fill="none" stroke="#243f60" d="M 40 281 C 40 271.6111584 75.3695008 264 119 264 C 162.6304992 264 198 271.6111584 198 281 C 198 290.3888416 162.6304992 298 119 298 C 75.3695008 298 40 290.3888416 40 281 Z" stroke-miterlimit="10"/></g><g transform="translate(2,-14) scale(1,1)"><g><path fill="none" stroke="none"/><text fill="#000000" stroke="none" font-family="bahnschrift" font-size="13px" font-style="normal" font-weight="bold" text-decoration="none" x="67.66015625" y="288">Quản lí cuốn sách</text></g></g><g transform="translate(2,-14) scale(1,1)"><path fill="none" stroke="#243f60" d="M 111 216 L 117 263" stroke-miterlimit="10"/></g><g transform="translate(2,-14) scale(1,1)"><path fill="#C0C0C0" stroke="none" d="M 455 136 C 455 126.6111584 477.6096176 119 505.5 119 C 533.3903824 119 556 126.6111584 556 136 C 556 145.3888416 533.3903824 153 505.5 153 C 477.6096176 153 455 145.3888416 455 136 Z" opacity="0.2"/></g><g transform="translate(2,-14) scale(1,1)"><path fill="#ffffff" stroke="none" d="M 448 129 C 448 119.6111584 470.6096176 112 498.5 112 C 526.3903824 112 549 119.6111584 549 129 C 549 138.3888416 526.3903824 146 498.5 146 C 470.6096176 146 448 138.3888416 448 129 Z"/></g><g transform="translate(2,-14) scale(1,1)"><path fill="none" stroke="#243f60" d="M 448 129 C 448 119.6111584 470.6096176 112 498.5 112 C 526.3903824 112 549 119.6111584 549 129 C 549 138.3888416 526.3903824 146 498.5 146 C 470.6096176 146 448 138.3888416 448 129 Z" stroke-miterlimit="10"/></g><g transform="translate(2,-14) scale(1,1)"><g><path fill="none" stroke="none"/><text fill="#000000" stroke="none" font-family="bahnschrift" font-size="13px" font-style="normal" font-weight="bold" text-decoration="none" x="487.007568359375" y="136">Sửa</text></g></g><g transform="translate(2,-14) scale(1,1)"><path fill="#C0C0C0" stroke="none" d="M 535 176 C 535 166.6111584 557.6096176 159 585.5 159 C 613.3903824 159 636 166.6111584 636 176 C 636 185.3888416 613.3903824 193 585.5 193 C 557.6096176 193 535 185.3888416 535 176 Z" opacity="0.2"/></g><g transform="translate(2,-14) scale(1,1)"><path fill="#ffffff" stroke="none" d="M 528 169 C 528 159.6111584 550.6096176 152 578.5 152 C 606.3903824 152 629 159.6111584 629 169 C 629 178.3888416 606.3903824 186 578.5 186 C 550.6096176 186 528 178.3888416 528 169 Z"/></g><g transform="translate(2,-14) scale(1,1)"><path fill="none" stroke="#243f60" d="M 528 169 C 528 159.6111584 550.6096176 152 578.5 152 C 606.3903824 152 629 159.6111584 629 169 C 629 178.3888416 606.3903824 186 578.5 186 C 550.6096176 186 528 178.3888416 528 169 Z" stroke-miterlimit="10"/></g><g transform="translate(2,-14) scale(1,1)"><g><path fill="none" stroke="none"/><text fill="#000000" stroke="none" font-family="bahnschrift" font-size="13px" font-style="normal" font-weight="bold" text-decoration="none" x="567.8740234375" y="176">Xoá</text></g></g><g transform="translate(2,-14) scale(1,1)"><path fill="#C0C0C0" stroke="none" d="M 599 232 C 599 222.6111584 621.6096176 215 649.5 215 C 677.3903824 215 700 222.6111584 700 232 C 700 241.3888416 677.3903824 249 649.5 249 C 621.6096176 249 599 241.3888416 599 232 Z" opacity="0.2"/></g><g transform="translate(2,-14) scale(1,1)"><path fill="#ffffff" stroke="none" d="M 592 225 C 592 215.6111584 614.6096176 208 642.5 208 C 670.3903824 208 693 215.6111584 693 225 C 693 234.3888416 670.3903824 242 642.5 242 C 614.6096176 242 592 234.3888416 592 225 Z"/></g><g transform="translate(2,-14) scale(1,1)"><path fill="none" stroke="#243f60" d="M 592 225 C 592 215.6111584 614.6096176 208 642.5 208 C 670.3903824 208 693 215.6111584 693 225 C 693 234.3888416 670.3903824 242 642.5 242 C 614.6096176 242 592 234.3888416 592 225 Z" stroke-miterlimit="10"/></g><g transform="translate(2,-14) scale(1,1)"><g><path fill="none" stroke="none"/><text fill="#000000" stroke="none" font-family="bahnschrift" font-size="13px" font-style="normal" font-weight="bold" text-decoration="none" x="622.114501953125" y="232">Chi tiết</text></g></g><g transform="translate(2,-14) scale(1,1)"><path fill="none" stroke="#243f60" d="M 447 139 L 384 151" stroke-miterlimit="10" stroke-dasharray="3"/></g><g transform="translate(2,-14) scale(1,1)"><path fill="none" stroke="#243f60" d="M 393.19553571012773 144.9632688478146 L 384 151 L 394.77083919118473 153.233612123364" stroke-miterlimit="10"/></g><g transform="translate(2,-14) scale(1,1)"><g><path fill="none" stroke="none"/><text fill="#000000" stroke="none" font-family="bahnschrift" font-size="13px" font-style="normal" font-weight="normal" text-decoration="none" x="383.8427734375" y="139.5">«include»</text></g></g><g transform="translate(2,-14) scale(1,1)"><path fill="none" stroke="#243f60" d="M 527 168 L 384 167" stroke-miterlimit="10" stroke-dasharray="3"/></g><g transform="translate(2,-14) scale(1,1)"><path fill="none" stroke="#243f60" d="M 394.19186284578916 162.86165108616706 L 384 167 L 394.132989911068 171.28048075129348" stroke-miterlimit="10"/></g><g transform="translate(2,-14) scale(1,1)"><g><path fill="none" stroke="none"/><text fill="#000000" stroke="none" font-family="bahnschrift" font-size="13px" font-style="normal" font-weight="normal" text-decoration="none" x="448.2236328125" y="187.5">«extend»</text></g></g><g transform="translate(2,-14) scale(1,1)"><path fill="none" stroke="#243f60" d="M 591 216 L 384 179" stroke-miterlimit="10" stroke-dasharray="3"/></g><g transform="translate(2,-14) scale(1,1)"><path fill="none" stroke="#243f60" d="M 394.74480519317206 176.6443342001077 L 384 179 L 393.2634318759335 184.93201735330732" stroke-miterlimit="10"/></g><g transform="translate(2,-14) scale(1,1)"><g><path fill="none" stroke="none"/><text fill="#000000" stroke="none" font-family="bahnschrift" font-size="13px" font-style="normal" font-weight="normal" text-decoration="none" x="464.2236328125" y="219.5">«extend»</text></g></g><g transform="translate(2,-14) scale(1,1)"><path fill="#C0C0C0" stroke="none" d="M 871 160 C 871 150.6111584 896.9674816 143 929 143 C 961.0325184 143 987 150.6111584 987 160 C 987 169.3888416 961.0325184 177 929 177 C 896.9674816 177 871 169.3888416 871 160 Z" opacity="0.2"/></g><g transform="translate(2,-14) scale(1,1)"><path fill="#ffffff" stroke="none" d="M 864 153 C 864 143.6111584 889.9674816 136 922 136 C 954.0325184 136 980 143.6111584 980 153 C 980 162.3888416 954.0325184 170 922 170 C 889.9674816 170 864 162.3888416 864 153 Z"/></g><g transform="translate(2,-14) scale(1,1)"><path fill="none" stroke="#243f60" d="M 864 153 C 864 143.6111584 889.9674816 136 922 136 C 954.0325184 136 980 143.6111584 980 153 C 980 162.3888416 954.0325184 170 922 170 C 889.9674816 170 864 162.3888416 864 153 Z" stroke-miterlimit="10"/></g><g transform="translate(2,-14) scale(1,1)"><g><path fill="none" stroke="none"/><text fill="#000000" stroke="none" font-family="bahnschrift" font-size="13px" font-style="normal" font-weight="bold" text-decoration="none" x="887.9765625" y="160">Xem chi tiết</text></g></g><g transform="translate(2,-14) scale(1,1)"><path fill="none" stroke="#243f60" d="M 863 142 L 704 113" stroke-miterlimit="10" stroke-dasharray="3"/></g><g transform="translate(2,-14) scale(1,1)"><path fill="none" stroke="#243f60" d="M 714.7530557035994 110.68228711111868 L 704 113 L 713.2424291070633 118.96468810592044" stroke-miterlimit="10"/></g><g transform="translate(2,-14) scale(1,1)"><g><path fill="none" stroke="none"/><text fill="#000000" stroke="none" font-family="bahnschrift" font-size="13px" font-style="normal" font-weight="normal" text-decoration="none" x="751.2236328125" y="162.5">«extend»</text></g></g><g transform="translate(2,-14) scale(1,1)"><path fill="#C0C0C0" stroke="none" d="M 455 280 C 455 270.6111584 477.6096176 263 505.5 263 C 533.3903824 263 556 270.6111584 556 280 C 556 289.3888416 533.3903824 297 505.5 297 C 477.6096176 297 455 289.3888416 455 280 Z" opacity="0.2"/></g><g transform="translate(2,-14) scale(1,1)"><path fill="#ffffff" stroke="none" d="M 448 273 C 448 263.6111584 470.6096176 256 498.5 256 C 526.3903824 256 549 263.6111584 549 273 C 549 282.3888416 526.3903824 290 498.5 290 C 470.6096176 290 448 282.3888416 448 273 Z"/></g><g transform="translate(2,-14) scale(1,1)"><path fill="none" stroke="#243f60" d="M 448 273 C 448 263.6111584 470.6096176 256 498.5 256 C 526.3903824 256 549 263.6111584 549 273 C 549 282.3888416 526.3903824 290 498.5 290 C 470.6096176 290 448 282.3888416 448 273 Z" stroke-miterlimit="10"/></g><g transform="translate(2,-14) scale(1,1)"><g><path fill="none" stroke="none"/><text fill="#000000" stroke="none" font-family="bahnschrift" font-size="13px" font-style="normal" font-weight="bold" text-decoration="none" x="478.114501953125" y="280">Chi tiết</text></g></g><g transform="translate(2,-14) scale(1,1)"><path fill="#C0C0C0" stroke="none" d="M 399 336 C 399 326.6111584 421.6096176 319 449.5 319 C 477.3903824 319 500 326.6111584 500 336 C 500 345.3888416 477.3903824 353 449.5 353 C 421.6096176 353 399 345.3888416 399 336 Z" opacity="0.2"/></g><g transform="translate(2,-14) scale(1,1)"><path fill="#ffffff" stroke="none" d="M 392 329 C 392 319.6111584 414.6096176 312 442.5 312 C 470.3903824 312 493 319.6111584 493 329 C 493 338.3888416 470.3903824 346 442.5 346 C 414.6096176 346 392 338.3888416 392 329 Z"/></g><g transform="translate(2,-14) scale(1,1)"><path fill="none" stroke="#243f60" d="M 392 329 C 392 319.6111584 414.6096176 312 442.5 312 C 470.3903824 312 493 319.6111584 493 329 C 493 338.3888416 470.3903824 346 442.5 346 C 414.6096176 346 392 338.3888416 392 329 Z" stroke-miterlimit="10"/></g><g transform="translate(2,-14) scale(1,1)"><g><path fill="none" stroke="none"/><text fill="#000000" stroke="none" font-family="bahnschrift" font-size="13px" font-style="normal" font-weight="bold" text-decoration="none" x="431.8740234375" y="336">Xoá</text></g></g><g transform="translate(2,-14) scale(1,1)"><path fill="#C0C0C0" stroke="none" d="M 303 312 C 303 302.6111584 325.6096176 295 353.5 295 C 381.3903824 295 404 302.6111584 404 312 C 404 321.3888416 381.3903824 329 353.5 329 C 325.6096176 329 303 321.3888416 303 312 Z" opacity="0.2"/></g><g transform="translate(2,-14) scale(1,1)"><path fill="#ffffff" stroke="none" d="M 296 305 C 296 295.6111584 318.6096176 288 346.5 288 C 374.3903824 288 397 295.6111584 397 305 C 397 314.3888416 374.3903824 322 346.5 322 C 318.6096176 322 296 314.3888416 296 305 Z"/></g><g transform="translate(2,-14) scale(1,1)"><path fill="none" stroke="#243f60" d="M 296 305 C 296 295.6111584 318.6096176 288 346.5 288 C 374.3903824 288 397 295.6111584 397 305 C 397 314.3888416 374.3903824 322 346.5 322 C 318.6096176 322 296 314.3888416 296 305 Z" stroke-miterlimit="10"/></g><g transform="translate(2,-14) scale(1,1)"><g><path fill="none" stroke="none"/><text fill="#000000" stroke="none" font-family="bahnschrift" font-size="13px" font-style="normal" font-weight="bold" text-decoration="none" x="335.007568359375" y="312">Sửa</text></g></g><g transform="translate(2,-14) scale(1,1)"><path fill="#C0C0C0" stroke="none" d="M 191 352 C 191 342.6111584 213.6096176 335 241.5 335 C 269.3903824 335 292 342.6111584 292 352 C 292 361.3888416 269.3903824 369 241.5 369 C 213.6096176 369 191 361.3888416 191 352 Z" opacity="0.2"/></g><g transform="translate(2,-14) scale(1,1)"><path fill="#ffffff" stroke="none" d="M 184 345 C 184 335.6111584 206.6096176 328 234.5 328 C 262.3903824 328 285 335.6111584 285 345 C 285 354.3888416 262.3903824 362 234.5 362 C 206.6096176 362 184 354.3888416 184 345 Z"/></g><g transform="translate(2,-14) scale(1,1)"><path fill="none" stroke="#243f60" d="M 184 345 C 184 335.6111584 206.6096176 328 234.5 328 C 262.3903824 328 285 335.6111584 285 345 C 285 354.3888416 262.3903824 362 234.5 362 C 206.6096176 362 184 354.3888416 184 345 Z" stroke-miterlimit="10"/></g><g transform="translate(2,-14) scale(1,1)"><g><path fill="none" stroke="none"/><text fill="#000000" stroke="none" font-family="bahnschrift" font-size="13px" font-style="normal" font-weight="bold" text-decoration="none" x="214.114501953125" y="352">Chi tiết</text></g></g><g transform="translate(2,-14) scale(1,1)"><path fill="#C0C0C0" stroke="none" d="M 127 384 C 127 374.6111584 149.6096176 367 177.5 367 C 205.3903824 367 228 374.6111584 228 384 C 228 393.3888416 205.3903824 401 177.5 401 C 149.6096176 401 127 393.3888416 127 384 Z" opacity="0.2"/></g><g transform="translate(2,-14) scale(1,1)"><path fill="#ffffff" stroke="none" d="M 120 377 C 120 367.6111584 142.6096176 360 170.5 360 C 198.3903824 360 221 367.6111584 221 377 C 221 386.3888416 198.3903824 394 170.5 394 C 142.6096176 394 120 386.3888416 120 377 Z"/></g><g transform="translate(2,-14) scale(1,1)"><path fill="none" stroke="#243f60" d="M 120 377 C 120 367.6111584 142.6096176 360 170.5 360 C 198.3903824 360 221 367.6111584 221 377 C 221 386.3888416 198.3903824 394 170.5 394 C 142.6096176 394 120 386.3888416 120 377 Z" stroke-miterlimit="10"/></g><g transform="translate(2,-14) scale(1,1)"><g><path fill="none" stroke="none"/><text fill="#000000" stroke="none" font-family="bahnschrift" font-size="13px" font-style="normal" font-weight="bold" text-decoration="none" x="159.8740234375" y="384">Xoá</text></g></g><g transform="translate(2,-14) scale(1,1)"><path fill="#C0C0C0" stroke="none" d="M 15 376 C 15 366.6111584 37.6096176 359 65.5 359 C 93.3903824 359 116 366.6111584 116 376 C 116 385.3888416 93.3903824 393 65.5 393 C 37.6096176 393 15 385.3888416 15 376 Z" opacity="0.2"/></g><g transform="translate(2,-14) scale(1,1)"><path fill="#ffffff" stroke="none" d="M 8 369 C 8 359.6111584 30.6096176 352 58.5 352 C 86.3903824 352 109 359.6111584 109 369 C 109 378.3888416 86.3903824 386 58.5 386 C 30.6096176 386 8 378.3888416 8 369 Z"/></g><g transform="translate(2,-14) scale(1,1)"><path fill="none" stroke="#243f60" d="M 8 369 C 8 359.6111584 30.6096176 352 58.5 352 C 86.3903824 352 109 359.6111584 109 369 C 109 378.3888416 86.3903824 386 58.5 386 C 30.6096176 386 8 378.3888416 8 369 Z" stroke-miterlimit="10"/></g><g transform="translate(2,-14) scale(1,1)"><g><path fill="none" stroke="none"/><text fill="#000000" stroke="none" font-family="bahnschrift" font-size="13px" font-style="normal" font-weight="bold" text-decoration="none" x="47.007568359375" y="376">Sửa</text></g></g><g transform="translate(2,-14) scale(1,1)"><path fill="none" stroke="#243f60" d="M 70 351 L 107 299" stroke-miterlimit="10" stroke-dasharray="3"/></g><g transform="translate(2,-14) scale(1,1)"><path fill="none" stroke="#243f60" d="M 104.53801473164113 309.7209434537443 L 107 299 L 97.6782617047019 304.8399653384222" stroke-miterlimit="10"/></g><g transform="translate(2,-14) scale(1,1)"><g><path fill="none" stroke="none"/><text fill="#000000" stroke="none" font-family="bahnschrift" font-size="13px" font-style="normal" font-weight="normal" text-decoration="none" x="37.2236328125" y="313.5">«extend»</text></g></g><g transform="translate(2,-14) scale(1,1)"><path fill="none" stroke="#243f60" d="M 160 359 L 129 299" stroke-miterlimit="10" stroke-dasharray="3"/></g><g transform="translate(2,-14) scale(1,1)"><path fill="none" stroke="#243f60" d="M 137.40471617016993 306.0965305677411 L 129 299 L 129.92502691052803 309.9610366852227" stroke-miterlimit="10"/></g><g transform="translate(2,-14) scale(1,1)"><g><path fill="none" stroke="none"/><text fill="#000000" stroke="none" font-family="bahnschrift" font-size="13px" font-style="normal" font-weight="normal" text-decoration="none" x="91.2236328125" y="348.5">«extend»</text></g></g><g transform="translate(2,-14) scale(1,1)"><path fill="none" stroke="#243f60" d="M 202 327 L 151 299" stroke-miterlimit="10" stroke-dasharray="3"/></g><g transform="translate(2,-14) scale(1,1)"><path fill="none" stroke="#243f60" d="M 161.9342503139048 300.20090385663156 L 151 299 L 157.882515283576 307.58084980473046" stroke-miterlimit="10"/></g><g transform="translate(2,-14) scale(1,1)"><g><path fill="none" stroke="none"/><text fill="#000000" stroke="none" font-family="bahnschrift" font-size="13px" font-style="normal" font-weight="normal" text-decoration="none" x="179.2236328125" y="310.5">«extend»</text></g></g><g transform="translate(2,-14) scale(1,1)"><path fill="none" stroke="#243f60" d="M 337 287 L 319 253" stroke-miterlimit="10" stroke-dasharray="3"/></g><g transform="translate(2,-14) scale(1,1)"><path fill="none" stroke="#243f60" d="M 327.4753116989089 260.01206757000654 L 319 253 L 320.03466984607826 263.95123090385806" stroke-miterlimit="10"/></g><g transform="translate(2,-14) scale(1,1)"><g><path fill="none" stroke="none"/><text fill="#000000" stroke="none" font-family="bahnschrift" font-size="13px" font-style="normal" font-weight="normal" text-decoration="none" x="275.2236328125" y="290.5">«extend»</text></g></g><g transform="translate(2,-14) scale(1,1)"><path fill="none" stroke="#243f60" d="M 417 311 L 335 253" stroke-miterlimit="10" stroke-dasharray="3"/></g><g transform="translate(2,-14) scale(1,1)"><path fill="none" stroke="#243f60" d="M 345.7278146879389 255.43187006668572 L 335 253 L 340.8661186980362 262.3053023282723" stroke-miterlimit="10"/></g><g transform="translate(2,-14) scale(1,1)"><g><path fill="none" stroke="none"/><text fill="#000000" stroke="none" font-family="bahnschrift" font-size="13px" font-style="normal" font-weight="normal" text-decoration="none" x="383.2236328125" y="283.5">«extend»</text></g></g><g transform="translate(2,-14) scale(1,1)"><path fill="none" stroke="#243f60" d="M 447 263 L 385 250" stroke-miterlimit="10" stroke-dasharray="3"/></g><g transform="translate(2,-14) scale(1,1)"><path fill="none" stroke="#243f60" d="M 395.81023766857373 247.96560536056788 L 385 250 L 394.0825266068387 256.2054581165347" stroke-miterlimit="10"/></g><g transform="translate(2,-14) scale(1,1)"><g><path fill="none" stroke="none"/><text fill="#000000" stroke="none" font-family="bahnschrift" font-size="13px" font-style="normal" font-weight="normal" text-decoration="none" x="408.2236328125" y="244.5">«extend»</text></g></g></g></svg>