<svg version="1.1" xmlns="http://www.w3.org/2000/svg" xmlns:xlink="http://www.w3.org/1999/xlink" width="758.1181640625" height="208"><defs/><g><g transform="translate(-70,-262) scale(1,1)"><path fill="#ffffff" stroke="none" d="M 780.3798093039773 329.68 C 780.3798093039773 324.886167936 784.2656516289227 321 789.05908203125 321 C 793.8525124335773 321 797.7383547585227 324.886167936 797.7383547585227 329.68 C 797.7383547585227 334.473832064 793.8525124335773 338.36 789.05908203125 338.36 C 784.2656516289227 338.36 780.3798093039773 334.473832064 780.3798093039773 329.68 Z"/></g><g transform="translate(-70,-262) scale(1,1)"><path fill="none" stroke="#243f60" d="M 780.3798093039773 329.68 C 780.3798093039773 324.886167936 784.2656516289227 321 789.05908203125 321 C 793.8525124335773 321 797.7383547585227 324.886167936 797.7383547585227 329.68 C 797.7383547585227 334.473832064 793.8525124335773 338.36 789.05908203125 338.36 C 784.2656516289227 338.36 780.3798093039773 334.473832064 780.3798093039773 329.68 Z" stroke-miterlimit="10"/></g><g transform="translate(-70,-262) scale(1,1)"><path fill="none" stroke="#243f60" d="M 789.05908203125 338.36 L 789.05908203125 355.64" stroke-miterlimit="10"/></g><g transform="translate(-70,-262) scale(1,1)"><path fill="none" stroke="#243f60" d="M 779.8692638494318 344.84 L 798.2489002130682 344.84" stroke-miterlimit="10"/></g><g transform="translate(-70,-262) scale(1,1)"><path fill="none" stroke="#243f60" d="M 789.05908203125 355.64 L 776.2954456676136 373" stroke-miterlimit="10"/></g><g transform="translate(-70,-262) scale(1,1)"><path fill="none" stroke="#243f60" d="M 789.05908203125 355.64 L 801.8227183948864 373" stroke-miterlimit="10"/></g><g transform="translate(-70,-262) scale(1,1)"><g><path fill="none" stroke="none"/><text fill="#000000" stroke="none" font-family="bahnschrift" font-size="13px" font-style="normal" font-weight="bold" text-decoration="none" x="767.156494140625" y="393.5">Thủ thư</text></g></g><g transform="translate(-70,-262) scale(1,1)"><path fill="#ffffff" stroke="none" d="M 99.65935031960227 329.68 C 99.65935031960227 324.886167936 103.54519264454773 321 108.338623046875 321 C 113.13205344920227 321 117.01789577414773 324.886167936 117.01789577414773 329.68 C 117.01789577414773 334.473832064 113.13205344920227 338.36 108.338623046875 338.36 C 103.54519264454773 338.36 99.65935031960227 334.473832064 99.65935031960227 329.68 Z"/></g><g transform="translate(-70,-262) scale(1,1)"><path fill="none" stroke="#243f60" d="M 99.65935031960227 329.68 C 99.65935031960227 324.886167936 103.54519264454773 321 108.338623046875 321 C 113.13205344920227 321 117.01789577414773 324.886167936 117.01789577414773 329.68 C 117.01789577414773 334.473832064 113.13205344920227 338.36 108.338623046875 338.36 C 103.54519264454773 338.36 99.65935031960227 334.473832064 99.65935031960227 329.68 Z" stroke-miterlimit="10"/></g><g transform="translate(-70,-262) scale(1,1)"><path fill="none" stroke="#243f60" d="M 108.338623046875 338.36 L 108.338623046875 355.64" stroke-miterlimit="10"/></g><g transform="translate(-70,-262) scale(1,1)"><path fill="none" stroke="#243f60" d="M 99.14880486505682 344.84 L 117.52844122869318 344.84" stroke-miterlimit="10"/></g><g transform="translate(-70,-262) scale(1,1)"><path fill="none" stroke="#243f60" d="M 108.338623046875 355.64 L 95.57498668323863 373" stroke-miterlimit="10"/></g><g transform="translate(-70,-262) scale(1,1)"><path fill="none" stroke="#243f60" d="M 108.338623046875 355.64 L 121.10225941051137 373" stroke-miterlimit="10"/></g><g transform="translate(-70,-262) scale(1,1)"><g><path fill="none" stroke="none"/><text fill="#000000" stroke="none" font-family="bahnschrift" font-size="13px" font-style="normal" font-weight="bold" text-decoration="none" x="86.80419921875" y="393.5">Độc giả</text></g></g><g transform="translate(-70,-262) scale(1,1)"><path fill="#C0C0C0" stroke="none" d="M 258 296 C 258 286.6111584 342.6181728 279 447 279 C 551.3818272 279 636 286.6111584 636 296 C 636 305.3888416 551.3818272 313 447 313 C 342.6181728 313 258 305.3888416 258 296 Z" opacity="0.2"/></g><g transform="translate(-70,-262) scale(1,1)"><path fill="#ffffff" stroke="none" d="M 251 289 C 251 279.6111584 335.6181728 272 440 272 C 544.3818272 272 629 279.6111584 629 289 C 629 298.3888416 544.3818272 306 440 306 C 335.6181728 306 251 298.3888416 251 289 Z"/></g><g transform="translate(-70,-262) scale(1,1)"><path fill="none" stroke="#243f60" d="M 251 289 C 251 279.6111584 335.6181728 272 440 272 C 544.3818272 272 629 279.6111584 629 289 C 629 298.3888416 544.3818272 306 440 306 C 335.6181728 306 251 298.3888416 251 289 Z" stroke-miterlimit="10"/></g><g transform="translate(-70,-262) scale(1,1)"><g><path fill="none" stroke="none"/><text fill="#000000" stroke="none" font-family="bahnschrift" font-size="13px" font-style="normal" font-weight="bold" text-decoration="none" x="348.64453125" y="296">Tìm kiếm nhanh: Mã, tên tài liệu</text></g></g><g transform="translate(-70,-262) scale(1,1)"><path fill="none" stroke="#243f60" d="M 138 353 L 355 307" stroke-miterlimit="10"/></g><g transform="translate(-70,-262) scale(1,1)"><path fill="none" stroke="#243f60" d="M 759 353 L 530 307" stroke-miterlimit="10"/></g><g transform="translate(-70,-262) scale(1,1)"><path fill="#C0C0C0" stroke="none" d="M 255 441 C 255 426.6405952 339.6181728 415 444 415 C 548.3818272 415 633 426.6405952 633 441 C 633 455.3594048 548.3818272 467 444 467 C 339.6181728 467 255 455.3594048 255 441 Z" opacity="0.2"/></g><g transform="translate(-70,-262) scale(1,1)"><path fill="#ffffff" stroke="none" d="M 248 434 C 248 419.6405952 332.6181728 408 437 408 C 541.3818272 408 626 419.6405952 626 434 C 626 448.3594048 541.3818272 460 437 460 C 332.6181728 460 248 448.3594048 248 434 Z"/></g><g transform="translate(-70,-262) scale(1,1)"><path fill="none" stroke="#243f60" d="M 248 434 C 248 419.6405952 332.6181728 408 437 408 C 541.3818272 408 626 419.6405952 626 434 C 626 448.3594048 541.3818272 460 437 460 C 332.6181728 460 248 448.3594048 248 434 Z" stroke-miterlimit="10"/></g><g transform="translate(-70,-262) scale(1,1)"><g><path fill="none" stroke="none"/><text fill="#000000" stroke="none" font-family="bahnschrift" font-size="13px" font-style="normal" font-weight="bold" text-decoration="none" x="318.29248046875" y="434.5">Tìm kiếm nâng cao: Theo mã, tên tài liệu, </text><text fill="#000000" stroke="none" font-family="bahnschrift" font-size="13px" font-style="normal" font-weight="bold" text-decoration="none" x="373.41552734375" y="447.5">ngành, NXB, tác giả, ...</text></g></g><g transform="translate(-70,-262) scale(1,1)"><path fill="none" stroke="#243f60" d="M 759 365 L 564 407" stroke-miterlimit="10"/></g><g transform="translate(-70,-262) scale(1,1)"><path fill="none" stroke="#243f60" d="M 319 407 L 138 366" stroke-miterlimit="10"/></g></g></svg>