<svg version="1.1" xmlns="http://www.w3.org/2000/svg" xmlns:xlink="http://www.w3.org/1999/xlink" width="704.06884765625" height="420"><defs/><g><g transform="translate(-86,-22) scale(1,1)"><rect fill="#C0C0C0" stroke="none" x="262" y="39" width="384" height="400" opacity="0.2"/></g><g transform="translate(-86,-22) scale(1,1)"><rect fill="#ffffff" stroke="none" x="255" y="32" width="384" height="400"/></g><g transform="translate(-86,-22) scale(1,1)"><path fill="none" stroke="#243f60" d="M 255 32 L 639 32 L 639 432 L 255 432 L 255 32 Z Z" stroke-miterlimit="10"/></g><g transform="translate(-86,-22) scale(1,1)"><g><path fill="none" stroke="none"/><text fill="#000000" stroke="none" font-family="Bahnschrift" font-size="15px" font-style="normal" font-weight="bold" text-decoration="none" x="382.81787109375" y="53.5">QUẢN LÝ THƯ VIỆN</text></g></g><g transform="translate(-86,-22) scale(1,1)"><path fill="#ffffff" stroke="none" d="M 117.03752414772728 81.68 C 117.03752414772728 76.886167936 120.92336647267274 73 125.716796875 73 C 130.51022727732726 73 134.39606960227272 76.886167936 134.39606960227272 81.68 C 134.39606960227272 86.473832064 130.51022727732726 90.36 125.716796875 90.36 C 120.92336647267274 90.36 117.03752414772728 86.473832064 117.03752414772728 81.68 Z"/></g><g transform="translate(-86,-22) scale(1,1)"><path fill="none" stroke="#243f60" d="M 117.03752414772728 81.68 C 117.03752414772728 76.886167936 120.92336647267274 73 125.716796875 73 C 130.51022727732726 73 134.39606960227272 76.886167936 134.39606960227272 81.68 C 134.39606960227272 86.473832064 130.51022727732726 90.36 125.716796875 90.36 C 120.92336647267274 90.36 117.03752414772728 86.473832064 117.03752414772728 81.68 Z" stroke-miterlimit="10"/></g><g transform="translate(-86,-22) scale(1,1)"><path fill="none" stroke="#243f60" d="M 125.716796875 90.36 L 125.716796875 107.64" stroke-miterlimit="10"/></g><g transform="translate(-86,-22) scale(1,1)"><path fill="none" stroke="#243f60" d="M 116.52697869318183 96.84 L 134.90661505681817 96.84" stroke-miterlimit="10"/></g><g transform="translate(-86,-22) scale(1,1)"><path fill="none" stroke="#243f60" d="M 125.716796875 107.64 L 112.95316051136365 125" stroke-miterlimit="10"/></g><g transform="translate(-86,-22) scale(1,1)"><path fill="none" stroke="#243f60" d="M 125.716796875 107.64 L 138.48043323863635 125" stroke-miterlimit="10"/></g><g transform="translate(-86,-22) scale(1,1)"><g><path fill="none" stroke="none"/><text fill="#000000" stroke="none" font-family="Bahnschrift" font-size="13px" font-style="normal" font-weight="bold" text-decoration="none" x="104.004638671875" y="145.5">Quản lý</text></g></g><g transform="translate(-86,-22) scale(1,1)"><path fill="#ffffff" stroke="none" d="M 116.37980930397728 241.68 C 116.37980930397728 236.886167936 120.26565162892274 233 125.05908203125 233 C 129.85251243357726 233 133.73835475852272 236.886167936 133.73835475852272 241.68 C 133.73835475852272 246.47383206400002 129.85251243357726 250.36 125.05908203125 250.36 C 120.26565162892274 250.36 116.37980930397728 246.47383206400002 116.37980930397728 241.68 Z"/></g><g transform="translate(-86,-22) scale(1,1)"><path fill="none" stroke="#243f60" d="M 116.37980930397728 241.68 C 116.37980930397728 236.886167936 120.26565162892274 233 125.05908203125 233 C 129.85251243357726 233 133.73835475852272 236.886167936 133.73835475852272 241.68 C 133.73835475852272 246.47383206400002 129.85251243357726 250.36 125.05908203125 250.36 C 120.26565162892274 250.36 116.37980930397728 246.47383206400002 116.37980930397728 241.68 Z" stroke-miterlimit="10"/></g><g transform="translate(-86,-22) scale(1,1)"><path fill="none" stroke="#243f60" d="M 125.05908203125 250.36 L 125.05908203125 267.64" stroke-miterlimit="10"/></g><g transform="translate(-86,-22) scale(1,1)"><path fill="none" stroke="#243f60" d="M 115.86926384943183 256.84 L 134.24890021306817 256.84" stroke-miterlimit="10"/></g><g transform="translate(-86,-22) scale(1,1)"><path fill="none" stroke="#243f60" d="M 125.05908203125 267.64 L 112.29544566761365 285" stroke-miterlimit="10"/></g><g transform="translate(-86,-22) scale(1,1)"><path fill="none" stroke="#243f60" d="M 125.05908203125 267.64 L 137.82271839488635 285" stroke-miterlimit="10"/></g><g transform="translate(-86,-22) scale(1,1)"><g><path fill="none" stroke="none"/><text fill="#000000" stroke="none" font-family="Bahnschrift" font-size="13px" font-style="normal" font-weight="bold" text-decoration="none" x="103.156494140625" y="305.5">Thủ thư</text></g></g><g transform="translate(-86,-22) scale(1,1)"><path fill="#ffffff" stroke="none" d="M 745.3551511008523 345.68 C 745.3551511008523 340.886167936 749.2409934257977 337 754.034423828125 337 C 758.8278542304523 337 762.7136965553977 340.886167936 762.7136965553977 345.68 C 762.7136965553977 350.473832064 758.8278542304523 354.36 754.034423828125 354.36 C 749.2409934257977 354.36 745.3551511008523 350.473832064 745.3551511008523 345.68 Z"/></g><g transform="translate(-86,-22) scale(1,1)"><path fill="none" stroke="#243f60" d="M 745.3551511008523 345.68 C 745.3551511008523 340.886167936 749.2409934257977 337 754.034423828125 337 C 758.8278542304523 337 762.7136965553977 340.886167936 762.7136965553977 345.68 C 762.7136965553977 350.473832064 758.8278542304523 354.36 754.034423828125 354.36 C 749.2409934257977 354.36 745.3551511008523 350.473832064 745.3551511008523 345.68 Z" stroke-miterlimit="10"/></g><g transform="translate(-86,-22) scale(1,1)"><path fill="none" stroke="#243f60" d="M 754.034423828125 354.36 L 754.034423828125 371.64" stroke-miterlimit="10"/></g><g transform="translate(-86,-22) scale(1,1)"><path fill="none" stroke="#243f60" d="M 744.8446056463068 360.84 L 763.2242420099432 360.84" stroke-miterlimit="10"/></g><g transform="translate(-86,-22) scale(1,1)"><path fill="none" stroke="#243f60" d="M 754.034423828125 371.64 L 741.2707874644886 389" stroke-miterlimit="10"/></g><g transform="translate(-86,-22) scale(1,1)"><path fill="none" stroke="#243f60" d="M 754.034423828125 371.64 L 766.7980601917614 389" stroke-miterlimit="10"/></g><g transform="translate(-86,-22) scale(1,1)"><g><path fill="none" stroke="none"/><text fill="#000000" stroke="none" font-family="Bahnschrift" font-size="13px" font-style="normal" font-weight="bold" text-decoration="none" x="732.5" y="409.5">Độc giả</text></g></g><g transform="translate(-86,-22) scale(1,1)"><path fill="#ffffff" stroke="none" d="M 366 111 C 366 101.6111584 400.697928 94 443.5 94 C 486.302072 94 521 101.6111584 521 111 C 521 120.3888416 486.302072 128 443.5 128 C 400.697928 128 366 120.3888416 366 111 Z"/></g><g transform="translate(-86,-22) scale(1,1)"><path fill="none" stroke="#243f60" d="M 366 111 C 366 101.6111584 400.697928 94 443.5 94 C 486.302072 94 521 101.6111584 521 111 C 521 120.3888416 486.302072 128 443.5 128 C 400.697928 128 366 120.3888416 366 111 Z" stroke-miterlimit="10"/></g><g transform="translate(-86,-22) scale(1,1)"><g><path fill="none" stroke="none"/><text fill="#000000" stroke="none" font-family="bahnschrift" font-size="13px" font-style="normal" font-weight="bold" text-decoration="none" x="393.248779296875" y="118">Quản trị hệ thống</text></g></g><g transform="translate(-86,-22) scale(1,1)"><path fill="#ffffff" stroke="none" d="M 375 164 C 375 154.6111584 405.6684912 147 443.5 147 C 481.3315088 147 512 154.6111584 512 164 C 512 173.3888416 481.3315088 181 443.5 181 C 405.6684912 181 375 173.3888416 375 164 Z"/></g><g transform="translate(-86,-22) scale(1,1)"><path fill="none" stroke="#243f60" d="M 375 164 C 375 154.6111584 405.6684912 147 443.5 147 C 481.3315088 147 512 154.6111584 512 164 C 512 173.3888416 481.3315088 181 443.5 181 C 405.6684912 181 375 173.3888416 375 164 Z" stroke-miterlimit="10"/></g><g transform="translate(-86,-22) scale(1,1)"><g><path fill="none" stroke="none"/><text fill="#000000" stroke="none" font-family="bahnschrift" font-size="13px" font-style="normal" font-weight="bold" text-decoration="none" x="399.418701171875" y="171">Quản lý độc giả</text></g></g><g transform="translate(-86,-22) scale(1,1)"><path fill="#ffffff" stroke="none" d="M 368 217 C 368 207.6111584 401.57864 200 443 200 C 484.42136 200 518 207.6111584 518 217 C 518 226.3888416 484.42136 234 443 234 C 401.57864 234 368 226.3888416 368 217 Z"/></g><g transform="translate(-86,-22) scale(1,1)"><path fill="none" stroke="#243f60" d="M 368 217 C 368 207.6111584 401.57864 200 443 200 C 484.42136 200 518 207.6111584 518 217 C 518 226.3888416 484.42136 234 443 234 C 401.57864 234 368 226.3888416 368 217 Z" stroke-miterlimit="10"/></g><g transform="translate(-86,-22) scale(1,1)"><g><path fill="none" stroke="none"/><text fill="#000000" stroke="none" font-family="bahnschrift" font-size="13px" font-style="normal" font-weight="bold" text-decoration="none" x="394.488037109375" y="224">Quản lý tựa sách</text></g></g><g transform="translate(-86,-22) scale(1,1)"><path fill="#ffffff" stroke="none" d="M 361 376 C 361 366.6111584 397.7126464 359 443 359 C 488.2873536 359 525 366.6111584 525 376 C 525 385.3888416 488.2873536 393 443 393 C 397.7126464 393 361 385.3888416 361 376 Z"/></g><g transform="translate(-86,-22) scale(1,1)"><path fill="none" stroke="#243f60" d="M 361 376 C 361 366.6111584 397.7126464 359 443 359 C 488.2873536 359 525 366.6111584 525 376 C 525 385.3888416 488.2873536 393 443 393 C 397.7126464 393 361 385.3888416 361 376 Z" stroke-miterlimit="10"/></g><g transform="translate(-86,-22) scale(1,1)"><g><path fill="none" stroke="none"/><text fill="#000000" stroke="none" font-family="bahnschrift" font-size="13px" font-style="normal" font-weight="bold" text-decoration="none" x="389.505126953125" y="383">Tìm kiếm thông tin</text></g></g><g transform="translate(-86,-22) scale(1,1)"><path fill="none" stroke="#243f60" d="M 155 266 L 367 230" stroke-miterlimit="10"/></g><g transform="translate(-86,-22) scale(1,1)"><path fill="none" stroke="#243f60" d="M 155 281 L 388 358" stroke-miterlimit="10"/></g><g transform="translate(-86,-22) scale(1,1)"><path fill="none" stroke="#243f60" d="M 727 375 L 526 376" stroke-miterlimit="10"/></g><g transform="translate(-86,-22) scale(1,1)"><path fill="#ffffff" stroke="none" d="M 367 270 C 367 260.6111584 401.2502128 253 443.5 253 C 485.7497872 253 520 260.6111584 520 270 C 520 279.3888416 485.7497872 287 443.5 287 C 401.2502128 287 367 279.3888416 367 270 Z"/></g><g transform="translate(-86,-22) scale(1,1)"><path fill="none" stroke="#243f60" d="M 367 270 C 367 260.6111584 401.2502128 253 443.5 253 C 485.7497872 253 520 260.6111584 520 270 C 520 279.3888416 485.7497872 287 443.5 287 C 401.2502128 287 367 279.3888416 367 270 Z" stroke-miterlimit="10"/></g><g transform="translate(-86,-22) scale(1,1)"><g><path fill="none" stroke="none"/><text fill="#000000" stroke="none" font-family="bahnschrift" font-size="13px" font-style="normal" font-weight="bold" text-decoration="none" x="394.02001953125" y="277">Quản lý đầu sách</text></g></g><g transform="translate(-86,-22) scale(1,1)"><path fill="#ffffff" stroke="none" d="M 362 323 C 362 313.6111584 398.2649312 306 443 306 C 487.7350688 306 524 313.6111584 524 323 C 524 332.3888416 487.7350688 340 443 340 C 398.2649312 340 362 332.3888416 362 323 Z"/></g><g transform="translate(-86,-22) scale(1,1)"><path fill="none" stroke="#243f60" d="M 362 323 C 362 313.6111584 398.2649312 306 443 306 C 487.7350688 306 524 313.6111584 524 323 C 524 332.3888416 487.7350688 340 443 340 C 398.2649312 340 362 332.3888416 362 323 Z" stroke-miterlimit="10"/></g><g transform="translate(-86,-22) scale(1,1)"><g><path fill="none" stroke="none"/><text fill="#000000" stroke="none" font-family="bahnschrift" font-size="13px" font-style="normal" font-weight="bold" text-decoration="none" x="390.152587890625" y="330">Quản lý cuốn sách</text></g></g><g transform="translate(-86,-22) scale(1,1)"><path fill="none" stroke="#243f60" d="M 153 111 L 365 111" stroke-miterlimit="10"/></g><g transform="translate(-86,-22) scale(1,1)"><path fill="none" stroke="#243f60" d="M 155 261 L 390 182" stroke-miterlimit="10"/></g><g transform="translate(-86,-22) scale(1,1)"><path fill="none" stroke="#243f60" d="M 155 271 L 366 270" stroke-miterlimit="10"/></g><g transform="translate(-86,-22) scale(1,1)"><path fill="none" stroke="#243f60" d="M 155 276 L 361 310" stroke-miterlimit="10"/></g></g></svg>