<svg version="1.1" xmlns="http://www.w3.org/2000/svg" xmlns:xlink="http://www.w3.org/1999/xlink" width="948" height="388"><defs/><g><g transform="translate(-22,2) scale(1,1)"><path fill="none" stroke="#243f60" d="M 32 8 L 960 8 L 960 376 L 32 376 L 32 8" stroke-miterlimit="10"/></g><g transform="translate(-22,2) scale(1,1)"><path fill="#ffffff" stroke="none" d="M 32 8 L 32 30 L 170.5986328125 30 L 181.5986328125 19 L 181.5986328125 8 L 32 8"/></g><g transform="translate(-22,2) scale(1,1)"><path fill="none" stroke="#243f60" d="M 32 8 L 32 30 L 170.5986328125 30 L 181.5986328125 19 L 181.5986328125 8 L 32 8 L 32 8" stroke-miterlimit="10"/></g><g transform="translate(-22,2) scale(1,1)"><g><path fill="none" stroke="none"/><text fill="#000000" stroke="none" font-family="bahnschrift" font-size="13px" font-style="normal" font-weight="normal" text-decoration="none" x="105.5244140625" y="25.5">DangNhap</text></g></g><g transform="translate(-22,2) scale(1,1)"><g><path fill="none" stroke="none"/><text fill="#000000" stroke="none" font-family="bahnschrift" font-size="13px" font-style="normal" font-weight="bold" text-decoration="none" x="37" y="25.5">interaction</text></g></g><g transform="translate(-22,2) scale(1,1)"><rect fill="#C0C0C0" stroke="none" x="95" y="47" width="122.2763671875" height="39" opacity="0.2"/></g><g transform="translate(-22,2) scale(1,1)"><rect fill="#ffffff" stroke="none" x="88" y="40" width="122.2763671875" height="39"/></g><g transform="translate(-22,2) scale(1,1)"><path fill="none" stroke="#243f60" d="M 88 40 L 210.2763671875 40 L 210.2763671875 79 L 88 79 L 88 40 Z Z" stroke-miterlimit="10"/></g><g transform="translate(-22,2) scale(1,1)"><g><path fill="none" stroke="none"/><text fill="#000000" stroke="none" font-family="bahnschrift" font-size="13px" font-style="normal" font-weight="bold" text-decoration="none" x="102.759033203125" y="59.5">Bộ phận thủ thư</text></g></g><g transform="translate(-22,2) scale(1,1)"><path fill="none" stroke="#000000" d="M 150.5 80 L 150.5 352" stroke-miterlimit="10" stroke-dasharray="3"/></g><g transform="translate(-22,2) scale(1,1)"><rect fill="#C0C0C0" stroke="none" x="344" y="47" width="122.2763671875" height="39" opacity="0.2"/></g><g transform="translate(-22,2) scale(1,1)"><rect fill="#ffffff" stroke="none" x="337" y="40" width="122.2763671875" height="39"/></g><g transform="translate(-22,2) scale(1,1)"><path fill="none" stroke="#243f60" d="M 337 40 L 459.2763671875 40 L 459.2763671875 79 L 337 79 L 337 40 Z Z" stroke-miterlimit="10"/></g><g transform="translate(-22,2) scale(1,1)"><g><path fill="none" stroke="none"/><text fill="#000000" stroke="none" font-family="bahnschrift" font-size="13px" font-style="normal" font-weight="bold" text-decoration="none" x="349.8642578125" y="59.5">Form Đăng nhập</text></g></g><g transform="translate(-22,2) scale(1,1)"><path fill="none" stroke="#000000" d="M 399.5 80 L 399.5 352" stroke-miterlimit="10" stroke-dasharray="3"/></g><g transform="translate(-22,2) scale(1,1)"><rect fill="#C0C0C0" stroke="none" x="595" y="47" width="122.2763671875" height="39" opacity="0.2"/></g><g transform="translate(-22,2) scale(1,1)"><rect fill="#ffffff" stroke="none" x="588" y="40" width="122.2763671875" height="39"/></g><g transform="translate(-22,2) scale(1,1)"><path fill="none" stroke="#243f60" d="M 588 40 L 710.2763671875 40 L 710.2763671875 79 L 588 79 L 588 40 Z Z" stroke-miterlimit="10"/></g><g transform="translate(-22,2) scale(1,1)"><g><path fill="none" stroke="none"/><text fill="#000000" stroke="none" font-family="bahnschrift" font-size="13px" font-style="normal" font-weight="bold" text-decoration="none" x="623.068359375" y="59.5">Hệ thống</text></g></g><g transform="translate(-22,2) scale(1,1)"><path fill="none" stroke="#000000" d="M 650.5 80 L 650.5 352" stroke-miterlimit="10" stroke-dasharray="3"/></g><g transform="translate(-22,2) scale(1,1)"><rect fill="#C0C0C0" stroke="none" x="799" y="47" width="122.2763671875" height="39" opacity="0.2"/></g><g transform="translate(-22,2) scale(1,1)"><rect fill="#ffffff" stroke="none" x="792" y="40" width="122.2763671875" height="39"/></g><g transform="translate(-22,2) scale(1,1)"><path fill="none" stroke="#243f60" d="M 792 40 L 914.2763671875 40 L 914.2763671875 79 L 792 79 L 792 40 Z Z" stroke-miterlimit="10"/></g><g transform="translate(-22,2) scale(1,1)"><g><path fill="none" stroke="none"/><text fill="#000000" stroke="none" font-family="bahnschrift" font-size="13px" font-style="normal" font-weight="bold" text-decoration="none" x="825.98291015625" y="59.5">Database</text></g></g><g transform="translate(-22,2) scale(1,1)"><path fill="none" stroke="#000000" d="M 854.5 80 L 854.5 352" stroke-miterlimit="10" stroke-dasharray="3"/></g><g transform="translate(-22,2) scale(1,1)"><path fill="none" stroke="#243f60" d="M 150 120 L 392 120" stroke-miterlimit="10"/></g><g transform="translate(-22,2) scale(1,1)"><path fill="#243f60" stroke="none" d="M 381.83732514237585 124.20951775601598 L 392 120 L 381.83732514237585 115.79048224398402"/></g><g transform="translate(-22,2) scale(1,1)"><path fill="none" stroke="#243f60" d="M 381.83732514237585 124.20951775601598 L 392 120 L 381.83732514237585 115.79048224398402 L 381.83732514237585 124.20951775601598" stroke-miterlimit="10"/></g><g transform="translate(-22,2) scale(1,1)"><g><path fill="none" stroke="none"/><text fill="#000000" stroke="none" font-family="bahnschrift" font-size="13px" font-style="normal" font-weight="normal" text-decoration="none" x="178.547119140625" y="116.5">1 : Nhập Username và password</text></g></g><g transform="translate(-22,2) scale(1,1)"><rect fill="#ffffff" stroke="none" x="392" y="120" width="13" height="28"/></g><g transform="translate(-22,2) scale(1,1)"><path fill="none" stroke="#243f60" d="M 392 120 L 405 120 L 405 148 L 392 148 L 392 120 Z Z" stroke-miterlimit="10"/></g><g transform="translate(-22,2) scale(1,1)"><path fill="none" stroke="#243f60" d="M 405 133 L 643 133" stroke-miterlimit="10"/></g><g transform="translate(-22,2) scale(1,1)"><path fill="#243f60" stroke="none" d="M 632.8373251423759 137.209517756016 L 643 133 L 632.8373251423758 128.790482243984"/></g><g transform="translate(-22,2) scale(1,1)"><path fill="none" stroke="#243f60" d="M 632.8373251423759 137.209517756016 L 643 133 L 632.8373251423758 128.790482243984 L 632.8373251423759 137.209517756016" stroke-miterlimit="10"/></g><g transform="translate(-22,2) scale(1,1)"><g><path fill="none" stroke="none"/><text fill="#000000" stroke="none" font-family="bahnschrift" font-size="13px" font-style="normal" font-weight="normal" text-decoration="none" x="451.7275390625" y="129.5">2 : Kiểm tra user và pass</text></g></g><g transform="translate(-22,2) scale(1,1)"><rect fill="#ffffff" stroke="none" x="643" y="133" width="13" height="28"/></g><g transform="translate(-22,2) scale(1,1)"><path fill="none" stroke="#243f60" d="M 643 133 L 656 133 L 656 161 L 643 161 L 643 133 Z Z" stroke-miterlimit="10"/></g><g transform="translate(-22,2) scale(1,1)"><path fill="none" stroke="#243f60" d="M 656 145 L 847 145" stroke-miterlimit="10"/></g><g transform="translate(-22,2) scale(1,1)"><path fill="#243f60" stroke="none" d="M 836.8373251423759 149.209517756016 L 847 145 L 836.8373251423758 140.790482243984"/></g><g transform="translate(-22,2) scale(1,1)"><path fill="none" stroke="#243f60" d="M 836.8373251423759 149.209517756016 L 847 145 L 836.8373251423758 140.790482243984 L 836.8373251423759 149.209517756016" stroke-miterlimit="10"/></g><g transform="translate(-22,2) scale(1,1)"><g><path fill="none" stroke="none"/><text fill="#000000" stroke="none" font-family="bahnschrift" font-size="13px" font-style="normal" font-weight="normal" text-decoration="none" x="717.16845703125" y="141.5">3 : Kiểm tra</text></g></g><g transform="translate(-22,2) scale(1,1)"><rect fill="#ffffff" stroke="none" x="847" y="145" width="13" height="63"/></g><g transform="translate(-22,2) scale(1,1)"><path fill="none" stroke="#243f60" d="M 847 145 L 860 145 L 860 208 L 847 208 L 847 145 Z Z" stroke-miterlimit="10"/></g><g transform="translate(-22,2) scale(1,1)"><path fill="none" stroke="#243f60" d="M 847 194 L 656 194" stroke-miterlimit="10"/></g><g transform="translate(-22,2) scale(1,1)"><path fill="#243f60" stroke="none" d="M 666.1626748576241 189.790482243984 L 656 194 L 666.1626748576241 198.209517756016"/></g><g transform="translate(-22,2) scale(1,1)"><path fill="none" stroke="#243f60" d="M 666.1626748576241 189.790482243984 L 656 194 L 666.1626748576241 198.209517756016 L 666.1626748576241 189.790482243984" stroke-miterlimit="10"/></g><g transform="translate(-22,2) scale(1,1)"><g><path fill="none" stroke="none"/><text fill="#000000" stroke="none" font-family="bahnschrift" font-size="13px" font-style="normal" font-weight="normal" text-decoration="none" x="676.9091796875" y="187.5">4 : Xác thực thành công</text></g></g><g transform="translate(-22,2) scale(1,1)"><rect fill="#ffffff" stroke="none" x="643" y="194" width="13" height="28"/></g><g transform="translate(-22,2) scale(1,1)"><path fill="none" stroke="#243f60" d="M 643 194 L 656 194 L 656 222 L 643 222 L 643 194 Z Z" stroke-miterlimit="10"/></g><g transform="translate(-22,2) scale(1,1)"><path fill="none" stroke="#243f60" d="M 643 200 L 405 200" stroke-miterlimit="10"/></g><g transform="translate(-22,2) scale(1,1)"><path fill="#243f60" stroke="none" d="M 415.16267485762415 195.790482243984 L 405 200 L 415.16267485762415 204.209517756016"/></g><g transform="translate(-22,2) scale(1,1)"><path fill="none" stroke="#243f60" d="M 415.16267485762415 195.790482243984 L 405 200 L 415.16267485762415 204.209517756016 L 415.16267485762415 195.790482243984" stroke-miterlimit="10"/></g><g transform="translate(-22,2) scale(1,1)"><g><path fill="none" stroke="none"/><text fill="#000000" stroke="none" font-family="bahnschrift" font-size="13px" font-style="normal" font-weight="normal" text-decoration="none" x="440.5" y="187.5">5 : Đăng nhập thành công</text></g></g><g transform="translate(-22,2) scale(1,1)"><rect fill="#ffffff" stroke="none" x="392" y="200" width="13" height="28"/></g><g transform="translate(-22,2) scale(1,1)"><path fill="none" stroke="#243f60" d="M 392 200 L 405 200 L 405 228 L 392 228 L 392 200 Z Z" stroke-miterlimit="10"/></g><g transform="translate(-22,2) scale(1,1)"><path fill="none" stroke="#243f60" d="M 392 208 L 156 208" stroke-miterlimit="10"/></g><g transform="translate(-22,2) scale(1,1)"><path fill="#243f60" stroke="none" d="M 166.16267485762415 203.790482243984 L 156 208 L 166.16267485762415 212.209517756016"/></g><g transform="translate(-22,2) scale(1,1)"><path fill="none" stroke="#243f60" d="M 166.16267485762415 203.790482243984 L 156 208 L 166.16267485762415 212.209517756016 L 166.16267485762415 203.790482243984" stroke-miterlimit="10"/></g><g transform="translate(-22,2) scale(1,1)"><g><path fill="none" stroke="none"/><text fill="#000000" stroke="none" font-family="bahnschrift" font-size="13px" font-style="normal" font-weight="normal" text-decoration="none" x="169.5" y="195.5">6 : Thông báo đăng nhập thành công</text></g></g><g transform="translate(-22,2) scale(1,1)"><rect fill="#ffffff" stroke="none" x="143" y="208" width="13" height="88"/></g><g transform="translate(-22,2) scale(1,1)"><path fill="none" stroke="#243f60" d="M 143 208 L 156 208 L 156 296 L 143 296 L 143 208 Z Z" stroke-miterlimit="10"/></g></g></svg>