<svg version="1.1" xmlns="http://www.w3.org/2000/svg" xmlns:xlink="http://www.w3.org/1999/xlink" width="709.57080078125" height="487"><defs/><g><g transform="translate(-38,-14) scale(1,1)"><rect fill="#C0C0C0" stroke="none" x="55" y="214" width="159.6689453125" height="160" opacity="0.2"/></g><g transform="translate(-38,-14) scale(1,1)"><rect fill="#ffffff" stroke="none" x="48" y="207" width="159.6689453125" height="160"/></g><g transform="translate(-38,-14) scale(1,1)"><path fill="none" stroke="#243f60" d="M 48 207 L 207.6689453125 207 L 207.6689453125 367 L 48 367 L 48 207 Z Z" stroke-miterlimit="10"/></g><g transform="translate(-38,-14) scale(1,1)"><path fill="none" stroke="#243f60" d="M 48 232 L 207.6689453125 232" stroke-miterlimit="10"/></g><g transform="translate(-38,-14) scale(1,1)"><path fill="none" stroke="#243f60" d="M 48 300 L 207.6689453125 300" stroke-miterlimit="10"/></g><g transform="translate(-38,-14) scale(1,1)"><g><path fill="none" stroke="none"/><text fill="#000000" stroke="none" font-family="bahnschrift" font-size="13px" font-style="normal" font-weight="bold" text-decoration="none" x="106.300048828125" y="226.5">Độc giả</text></g></g><g transform="translate(-38,-14) scale(1,1)"><g><path fill="none" stroke="none"/><text fill="#000000" stroke="none" font-family="bahnschrift" font-size="13px" font-style="normal" font-weight="normal" text-decoration="none" x="53" y="249.5">«nvarchar»+Họ</text></g></g><g transform="translate(-38,-14) scale(1,1)"><g><path fill="none" stroke="none"/><text fill="#000000" stroke="none" font-family="bahnschrift" font-size="13px" font-style="normal" font-weight="normal" text-decoration="none" x="53" y="264.5">+Tên lót</text></g></g><g transform="translate(-38,-14) scale(1,1)"><g><path fill="none" stroke="none"/><text fill="#000000" stroke="none" font-family="bahnschrift" font-size="13px" font-style="normal" font-weight="normal" text-decoration="none" x="53" y="279.5">+Tên</text></g></g><g transform="translate(-38,-14) scale(1,1)"><g><path fill="none" stroke="none"/><text fill="#000000" stroke="none" font-family="bahnschrift" font-size="13px" font-style="normal" font-weight="normal" text-decoration="none" x="53" y="294.5">+Ngày sinh</text></g></g><g transform="translate(-38,-14) scale(1,1)"><g><path fill="none" stroke="none"/><text fill="#000000" stroke="none" font-family="bahnschrift" font-size="13px" font-style="normal" font-weight="normal" text-decoration="none" x="53" y="317.5">+Thêm()</text></g></g><g transform="translate(-38,-14) scale(1,1)"><g><path fill="none" stroke="none"/><text fill="#000000" stroke="none" font-family="bahnschrift" font-size="13px" font-style="normal" font-weight="normal" text-decoration="none" x="53" y="332.5">+Xóa()</text></g></g><g transform="translate(-38,-14) scale(1,1)"><g><path fill="none" stroke="none"/><text fill="#000000" stroke="none" font-family="bahnschrift" font-size="13px" font-style="normal" font-weight="normal" text-decoration="none" x="53" y="347.5">+Sửa()</text></g></g><g transform="translate(-38,-14) scale(1,1)"><rect fill="#C0C0C0" stroke="none" x="247" y="406" width="118.33837890625" height="85" opacity="0.2"/></g><g transform="translate(-38,-14) scale(1,1)"><rect fill="#ffffff" stroke="none" x="240" y="399" width="118.33837890625" height="85"/></g><g transform="translate(-38,-14) scale(1,1)"><path fill="none" stroke="#243f60" d="M 240 399 L 358.33837890625 399 L 358.33837890625 484 L 240 484 L 240 399 Z Z" stroke-miterlimit="10"/></g><g transform="translate(-38,-14) scale(1,1)"><path fill="none" stroke="#243f60" d="M 240 424 L 358.33837890625 424" stroke-miterlimit="10"/></g><g transform="translate(-38,-14) scale(1,1)"><path fill="none" stroke="#243f60" d="M 240 462 L 358.33837890625 462" stroke-miterlimit="10"/></g><g transform="translate(-38,-14) scale(1,1)"><g><path fill="none" stroke="none"/><text fill="#000000" stroke="none" font-family="bahnschrift" font-size="13px" font-style="normal" font-weight="bold" text-decoration="none" x="275.93359375" y="418.5">Đăng ký</text></g></g><g transform="translate(-38,-14) scale(1,1)"><g><path fill="none" stroke="none"/><text fill="#000000" stroke="none" font-family="bahnschrift" font-size="13px" font-style="normal" font-weight="normal" text-decoration="none" x="245" y="441.5">+Ngày giờ đăng ký</text></g></g><g transform="translate(-38,-14) scale(1,1)"><g><path fill="none" stroke="none"/><text fill="#000000" stroke="none" font-family="bahnschrift" font-size="13px" font-style="normal" font-weight="normal" text-decoration="none" x="245" y="456.5">+Ghi chú</text></g></g><g transform="translate(-38,-14) scale(1,1)"><g><path fill="none" stroke="none"/><text fill="#000000" stroke="none" font-family="bahnschrift" font-size="13px" font-style="normal" font-weight="normal" text-decoration="none" x="245" y="479.5">+Cập nhật()</text></g></g><g transform="translate(-38,-14) scale(1,1)"><path fill="none" stroke="#243f60" d="M 209 360 L 251 398" stroke-miterlimit="10"/></g><g transform="translate(-38,-14) scale(1,1)"><g><path fill="none" stroke="none"/><text fill="#000000" stroke="none" font-family="bahnschrift" font-size="13px" font-style="normal" font-weight="normal" text-decoration="none" x="205.76318359375" y="373.5">+Mã độc giả</text></g></g><g transform="translate(-38,-14) scale(1,1)"><rect fill="#C0C0C0" stroke="none" x="459" y="398" width="89.57080078125" height="100" opacity="0.2"/></g><g transform="translate(-38,-14) scale(1,1)"><rect fill="#ffffff" stroke="none" x="452" y="391" width="89.57080078125" height="100"/></g><g transform="translate(-38,-14) scale(1,1)"><path fill="none" stroke="#243f60" d="M 452 391 L 541.57080078125 391 L 541.57080078125 491 L 452 491 L 452 391 Z Z" stroke-miterlimit="10"/></g><g transform="translate(-38,-14) scale(1,1)"><path fill="none" stroke="#243f60" d="M 452 416 L 541.57080078125 416" stroke-miterlimit="10"/></g><g transform="translate(-38,-14) scale(1,1)"><path fill="none" stroke="#243f60" d="M 452 469 L 541.57080078125 469" stroke-miterlimit="10"/></g><g transform="translate(-38,-14) scale(1,1)"><g><path fill="none" stroke="none"/><text fill="#000000" stroke="none" font-family="bahnschrift" font-size="13px" font-style="normal" font-weight="bold" text-decoration="none" x="469.852294921875" y="410.5">Đầu sách</text></g></g><g transform="translate(-38,-14) scale(1,1)"><g><path fill="none" stroke="none"/><text fill="#000000" stroke="none" font-family="bahnschrift" font-size="13px" font-style="normal" font-weight="normal" text-decoration="none" x="457" y="433.5">+Ngôn ngữ</text></g></g><g transform="translate(-38,-14) scale(1,1)"><g><path fill="none" stroke="none"/><text fill="#000000" stroke="none" font-family="bahnschrift" font-size="13px" font-style="normal" font-weight="normal" text-decoration="none" x="457" y="448.5">+Bìa</text></g></g><g transform="translate(-38,-14) scale(1,1)"><g><path fill="none" stroke="none"/><text fill="#000000" stroke="none" font-family="bahnschrift" font-size="13px" font-style="normal" font-weight="normal" text-decoration="none" x="457" y="463.5">+Trạng thái</text></g></g><g transform="translate(-38,-14) scale(1,1)"><g><path fill="none" stroke="none"/><text fill="#000000" stroke="none" font-family="bahnschrift" font-size="13px" font-style="normal" font-weight="normal" text-decoration="none" x="457" y="486.5">+Cập nhật()</text></g></g><g transform="translate(-38,-14) scale(1,1)"><path fill="none" stroke="#243f60" d="M 359 441 L 451 441" stroke-miterlimit="10"/></g><g transform="translate(-38,-14) scale(1,1)"><g><path fill="none" stroke="none"/><text fill="#000000" stroke="none" font-family="bahnschrift" font-size="13px" font-style="normal" font-weight="normal" text-decoration="none" x="368.617431640625" y="432.5">+isbn</text></g></g><g transform="translate(-38,-14) scale(1,1)"><rect fill="#C0C0C0" stroke="none" x="655" y="398" width="89.57080078125" height="100" opacity="0.2"/></g><g transform="translate(-38,-14) scale(1,1)"><rect fill="#ffffff" stroke="none" x="648" y="391" width="89.57080078125" height="100"/></g><g transform="translate(-38,-14) scale(1,1)"><path fill="none" stroke="#243f60" d="M 648 391 L 737.57080078125 391 L 737.57080078125 491 L 648 491 L 648 391 Z Z" stroke-miterlimit="10"/></g><g transform="translate(-38,-14) scale(1,1)"><path fill="none" stroke="#243f60" d="M 648 416 L 737.57080078125 416" stroke-miterlimit="10"/></g><g transform="translate(-38,-14) scale(1,1)"><path fill="none" stroke="#243f60" d="M 648 469 L 737.57080078125 469" stroke-miterlimit="10"/></g><g transform="translate(-38,-14) scale(1,1)"><g><path fill="none" stroke="none"/><text fill="#000000" stroke="none" font-family="bahnschrift" font-size="13px" font-style="normal" font-weight="bold" text-decoration="none" x="666.975830078125" y="410.5">Tựa sách</text></g></g><g transform="translate(-38,-14) scale(1,1)"><g><path fill="none" stroke="none"/><text fill="#000000" stroke="none" font-family="bahnschrift" font-size="13px" font-style="normal" font-weight="normal" text-decoration="none" x="653" y="433.5">+Tựa sách</text></g></g><g transform="translate(-38,-14) scale(1,1)"><g><path fill="none" stroke="none"/><text fill="#000000" stroke="none" font-family="bahnschrift" font-size="13px" font-style="normal" font-weight="normal" text-decoration="none" x="653" y="448.5">+Tác giả</text></g></g><g transform="translate(-38,-14) scale(1,1)"><g><path fill="none" stroke="none"/><text fill="#000000" stroke="none" font-family="bahnschrift" font-size="13px" font-style="normal" font-weight="normal" text-decoration="none" x="653" y="463.5">+Tóm tắt</text></g></g><g transform="translate(-38,-14) scale(1,1)"><g><path fill="none" stroke="none"/><text fill="#000000" stroke="none" font-family="bahnschrift" font-size="13px" font-style="normal" font-weight="normal" text-decoration="none" x="653" y="486.5">+Cập nhật()</text></g></g><g transform="translate(-38,-14) scale(1,1)"><path fill="none" stroke="#243f60" d="M 543 441 L 647 441" stroke-miterlimit="10"/></g><g transform="translate(-38,-14) scale(1,1)"><g><path fill="none" stroke="none"/><text fill="#000000" stroke="none" font-family="bahnschrift" font-size="13px" font-style="normal" font-weight="normal" text-decoration="none" x="556.6806640625" y="432.5">+Mã tựa sách</text></g></g><g transform="translate(-38,-14) scale(1,1)"><rect fill="#C0C0C0" stroke="none" x="343" y="31" width="147.56591796875" height="145" opacity="0.2"/></g><g transform="translate(-38,-14) scale(1,1)"><rect fill="#ffffff" stroke="none" x="336" y="24" width="147.56591796875" height="145"/></g><g transform="translate(-38,-14) scale(1,1)"><path fill="none" stroke="#243f60" d="M 336 24 L 483.56591796875 24 L 483.56591796875 169 L 336 169 L 336 24 Z Z" stroke-miterlimit="10"/></g><g transform="translate(-38,-14) scale(1,1)"><path fill="none" stroke="#243f60" d="M 336 49 L 483.56591796875 49" stroke-miterlimit="10"/></g><g transform="translate(-38,-14) scale(1,1)"><path fill="none" stroke="#243f60" d="M 336 147 L 483.56591796875 147" stroke-miterlimit="10"/></g><g transform="translate(-38,-14) scale(1,1)"><g><path fill="none" stroke="none"/><text fill="#000000" stroke="none" font-family="bahnschrift" font-size="13px" font-style="normal" font-weight="bold" text-decoration="none" x="364.39404296875" y="43.5">Quá trình mượn</text></g></g><g transform="translate(-38,-14) scale(1,1)"><g><path fill="none" stroke="none"/><text fill="#000000" stroke="none" font-family="bahnschrift" font-size="13px" font-style="normal" font-weight="normal" text-decoration="none" x="341" y="66.5">+Ngày hết hạn</text></g></g><g transform="translate(-38,-14) scale(1,1)"><g><path fill="none" stroke="none"/><text fill="#000000" stroke="none" font-family="bahnschrift" font-size="13px" font-style="normal" font-weight="normal" text-decoration="none" x="341" y="81.5">+Ngày giờ trả</text></g></g><g transform="translate(-38,-14) scale(1,1)"><g><path fill="none" stroke="none"/><text fill="#000000" stroke="none" font-family="bahnschrift" font-size="13px" font-style="normal" font-weight="normal" text-decoration="none" x="341" y="96.5">+Tiền mượn</text></g></g><g transform="translate(-38,-14) scale(1,1)"><g><path fill="none" stroke="none"/><text fill="#000000" stroke="none" font-family="bahnschrift" font-size="13px" font-style="normal" font-weight="normal" text-decoration="none" x="341" y="111.5">+Tiền đã trả</text></g></g><g transform="translate(-38,-14) scale(1,1)"><g><path fill="none" stroke="none"/><text fill="#000000" stroke="none" font-family="bahnschrift" font-size="13px" font-style="normal" font-weight="normal" text-decoration="none" x="341" y="126.5">+Tiền đặt cọc</text></g></g><g transform="translate(-38,-14) scale(1,1)"><g><path fill="none" stroke="none"/><text fill="#000000" stroke="none" font-family="bahnschrift" font-size="13px" font-style="normal" font-weight="normal" text-decoration="none" x="341" y="141.5">+Ghi chú</text></g></g><g transform="translate(-38,-14) scale(1,1)"><g><path fill="none" stroke="none"/><text fill="#000000" stroke="none" font-family="bahnschrift" font-size="13px" font-style="normal" font-weight="normal" text-decoration="none" x="341" y="164.5">+Cập nhật()</text></g></g><g transform="translate(-38,-14) scale(1,1)"><path fill="none" stroke="#243f60" d="M 209 232 L 335 146" stroke-miterlimit="10"/></g><g transform="translate(-38,-14) scale(1,1)"><g><path fill="none" stroke="none"/><text fill="#000000" stroke="none" font-family="bahnschrift" font-size="13px" font-style="normal" font-weight="normal" text-decoration="none" x="228.76318359375" y="182.5">+Mã độc giả</text></g></g><g transform="translate(-38,-14) scale(1,1)"><rect fill="#C0C0C0" stroke="none" x="662" y="258" width="75.84716796875" height="72" opacity="0.2"/></g><g transform="translate(-38,-14) scale(1,1)"><rect fill="#ffffff" stroke="none" x="655" y="251" width="75.84716796875" height="72"/></g><g transform="translate(-38,-14) scale(1,1)"><path fill="none" stroke="#243f60" d="M 655 251 L 730.84716796875 251 L 730.84716796875 323 L 655 323 L 655 251 Z Z" stroke-miterlimit="10"/></g><g transform="translate(-38,-14) scale(1,1)"><path fill="none" stroke="#243f60" d="M 655 276 L 730.84716796875 276" stroke-miterlimit="10"/></g><g transform="translate(-38,-14) scale(1,1)"><path fill="none" stroke="#243f60" d="M 655 314 L 730.84716796875 314" stroke-miterlimit="10"/></g><g transform="translate(-38,-14) scale(1,1)"><g><path fill="none" stroke="none"/><text fill="#000000" stroke="none" font-family="bahnschrift" font-size="13px" font-style="normal" font-weight="bold" text-decoration="none" x="662.670654296875" y="270.5">Cuốn sách</text></g></g><g transform="translate(-38,-14) scale(1,1)"><g><path fill="none" stroke="none"/><text fill="#000000" stroke="none" font-family="bahnschrift" font-size="13px" font-style="normal" font-weight="normal" text-decoration="none" x="660" y="293.5">+Tình trạng</text></g></g><g transform="translate(-38,-14) scale(1,1)"><g><path fill="none" stroke="none"/><text fill="#000000" stroke="none" font-family="bahnschrift" font-size="13px" font-style="normal" font-weight="normal" text-decoration="none" x="660" y="308.5">+Cập nhật</text></g></g><g transform="translate(-38,-14) scale(1,1)"><path fill="none" stroke="#243f60" d="M 485 147 L 654 261" stroke-miterlimit="10"/></g><g transform="translate(-38,-14) scale(1,1)"><g><path fill="none" stroke="none"/><text fill="#000000" stroke="none" font-family="bahnschrift" font-size="13px" font-style="normal" font-weight="normal" text-decoration="none" x="561.617431640625" y="197.5">+isbn</text></g></g><g transform="translate(-38,-14) scale(1,1)"><rect fill="#C0C0C0" stroke="none" x="362" y="252" width="108.09326171875" height="85" opacity="0.2"/></g><g transform="translate(-38,-14) scale(1,1)"><rect fill="#ffffff" stroke="none" x="355" y="245" width="108.09326171875" height="85"/></g><g transform="translate(-38,-14) scale(1,1)"><path fill="none" stroke="#243f60" d="M 355 245 L 463.09326171875 245 L 463.09326171875 330 L 355 330 L 355 245 Z Z" stroke-miterlimit="10"/></g><g transform="translate(-38,-14) scale(1,1)"><path fill="none" stroke="#243f60" d="M 355 270 L 463.09326171875 270" stroke-miterlimit="10"/></g><g transform="translate(-38,-14) scale(1,1)"><path fill="none" stroke="#243f60" d="M 355 308 L 463.09326171875 308" stroke-miterlimit="10"/></g><g transform="translate(-38,-14) scale(1,1)"><g><path fill="none" stroke="none"/><text fill="#000000" stroke="none" font-family="bahnschrift" font-size="13px" font-style="normal" font-weight="bold" text-decoration="none" x="392.752197265625" y="264.5">Mượn</text></g></g><g transform="translate(-38,-14) scale(1,1)"><g><path fill="none" stroke="none"/><text fill="#000000" stroke="none" font-family="bahnschrift" font-size="13px" font-style="normal" font-weight="normal" text-decoration="none" x="360" y="287.5">+Ngày giờ mượn</text></g></g><g transform="translate(-38,-14) scale(1,1)"><g><path fill="none" stroke="none"/><text fill="#000000" stroke="none" font-family="bahnschrift" font-size="13px" font-style="normal" font-weight="normal" text-decoration="none" x="360" y="302.5">+Ngày hết hạn</text></g></g><g transform="translate(-38,-14) scale(1,1)"><g><path fill="none" stroke="none"/><text fill="#000000" stroke="none" font-family="bahnschrift" font-size="13px" font-style="normal" font-weight="normal" text-decoration="none" x="360" y="325.5">+Cập nhật()</text></g></g><g transform="translate(-38,-14) scale(1,1)"><path fill="none" stroke="#243f60" d="M 654 287 L 464 287" stroke-miterlimit="10"/></g><g transform="translate(-38,-14) scale(1,1)"><g><path fill="none" stroke="none"/><text fill="#000000" stroke="none" font-family="bahnschrift" font-size="13px" font-style="normal" font-weight="normal" text-decoration="none" x="542.617431640625" y="308.5">+isbn</text></g></g><g transform="translate(-38,-14) scale(1,1)"><path fill="none" stroke="#243f60" d="M 654 317 L 543 404" stroke-miterlimit="10"/></g><g transform="translate(-38,-14) scale(1,1)"><g><path fill="none" stroke="none"/><text fill="#000000" stroke="none" font-family="bahnschrift" font-size="13px" font-style="normal" font-weight="normal" text-decoration="none" x="591.617431640625" y="377.5">+isbn</text></g></g><g transform="translate(-38,-14) scale(1,1)"><path fill="none" stroke="#243f60" d="M 209 287 L 354 287" stroke-miterlimit="10"/></g><g transform="translate(-38,-14) scale(1,1)"><g><path fill="none" stroke="none"/><text fill="#000000" stroke="none" font-family="bahnschrift" font-size="13px" font-style="normal" font-weight="normal" text-decoration="none" x="246.76318359375" y="278.5">+Mã độc giả</text></g></g></g></svg>