<svg version="1.1" xmlns="http://www.w3.org/2000/svg" xmlns:xlink="http://www.w3.org/1999/xlink" width="573" height="515"><defs/><g><g transform="translate(-374,-182) scale(1,1)"><path fill="#C0C0C0" stroke="none" d="M 596 199 L 689.01904296875 199 Q 699.01904296875 199 699.01904296875 209 L 699.01904296875 228 Q 699.01904296875 238 689.01904296875 238 L 596 238 Q 586 238 586 228 L 586 209 Q 586 199 596 199 Z" opacity="0.2"/></g><g transform="translate(-374,-182) scale(1,1)"><path fill="#ffffff" stroke="none" d="M 589 192 L 682.01904296875 192 Q 692.01904296875 192 692.01904296875 202 L 692.01904296875 221 Q 692.01904296875 231 682.01904296875 231 L 589 231 Q 579 231 579 221 L 579 202 Q 579 192 589 192 Z"/></g><g transform="translate(-374,-182) scale(1,1)"><path fill="none" stroke="#243f60" d="M 589 192 L 682.01904296875 192 Q 692.01904296875 192 692.01904296875 202 L 692.01904296875 221 Q 692.01904296875 231 682.01904296875 231 L 589 231 Q 579 231 579 221 L 579 202 Q 579 192 589 192 Z" stroke-miterlimit="10"/></g><g transform="translate(-374,-182) scale(1,1)"><g><path fill="none" stroke="none"/><text fill="#000000" stroke="none" font-family="bahnschrift" font-size="13px" font-style="normal" font-weight="bold" text-decoration="none" x="604.498046875" y="211.5">Đăng nhập</text></g></g><g transform="translate(-374,-182) scale(1,1)"><path fill="#C0C0C0" stroke="none" d="M 580 335 L 705.373046875 335 Q 715.373046875 335 715.373046875 345 L 715.373046875 364 Q 715.373046875 374 705.373046875 374 L 580 374 Q 570 374 570 364 L 570 345 Q 570 335 580 335 Z" opacity="0.2"/></g><g transform="translate(-374,-182) scale(1,1)"><path fill="#ffffff" stroke="none" d="M 573 328 L 698.373046875 328 Q 708.373046875 328 708.373046875 338 L 708.373046875 357 Q 708.373046875 367 698.373046875 367 L 573 367 Q 563 367 563 357 L 563 338 Q 563 328 573 328 Z"/></g><g transform="translate(-374,-182) scale(1,1)"><path fill="none" stroke="#243f60" d="M 573 328 L 698.373046875 328 Q 708.373046875 328 708.373046875 338 L 708.373046875 357 Q 708.373046875 367 698.373046875 367 L 573 367 Q 563 367 563 357 L 563 338 Q 563 328 573 328 Z" stroke-miterlimit="10"/></g><g transform="translate(-374,-182) scale(1,1)"><g><path fill="none" stroke="none"/><text fill="#000000" stroke="none" font-family="bahnschrift" font-size="13px" font-style="normal" font-weight="bold" text-decoration="none" x="577.42138671875" y="347.5">Xác nhận đăng nhập</text></g></g><g transform="translate(-374,-182) scale(1,1)"><path fill="#C0C0C0" stroke="none" d="M 586 415 L 698.40478515625 415 Q 708.40478515625 415 708.40478515625 425 L 708.40478515625 444 Q 708.40478515625 454 698.40478515625 454 L 586 454 Q 576 454 576 444 L 576 425 Q 576 415 586 415 Z" opacity="0.2"/></g><g transform="translate(-374,-182) scale(1,1)"><path fill="#ffffff" stroke="none" d="M 579 408 L 691.40478515625 408 Q 701.40478515625 408 701.40478515625 418 L 701.40478515625 437 Q 701.40478515625 447 691.40478515625 447 L 579 447 Q 569 447 569 437 L 569 418 Q 569 408 579 408 Z"/></g><g transform="translate(-374,-182) scale(1,1)"><path fill="none" stroke="#243f60" d="M 579 408 L 691.40478515625 408 Q 701.40478515625 408 701.40478515625 418 L 701.40478515625 437 Q 701.40478515625 447 691.40478515625 447 L 579 447 Q 569 447 569 437 L 569 418 Q 569 408 579 408 Z" stroke-miterlimit="10"/></g><g transform="translate(-374,-182) scale(1,1)"><g><path fill="none" stroke="none"/><text fill="#000000" stroke="none" font-family="bahnschrift" font-size="13px" font-style="normal" font-weight="bold" text-decoration="none" x="599.141357421875" y="427.5">Chọn tài liệu</text></g></g><g transform="translate(-374,-182) scale(1,1)"><path fill="#C0C0C0" stroke="none" d="M 584 551 L 701.55908203125 551 Q 711.55908203125 551 711.55908203125 561 L 711.55908203125 580 Q 711.55908203125 590 701.55908203125 590 L 584 590 Q 574 590 574 580 L 574 561 Q 574 551 584 551 Z" opacity="0.2"/></g><g transform="translate(-374,-182) scale(1,1)"><path fill="#ffffff" stroke="none" d="M 577 544 L 694.55908203125 544 Q 704.55908203125 544 704.55908203125 554 L 704.55908203125 573 Q 704.55908203125 583 694.55908203125 583 L 577 583 Q 567 583 567 573 L 567 554 Q 567 544 577 544 Z"/></g><g transform="translate(-374,-182) scale(1,1)"><path fill="none" stroke="#243f60" d="M 577 544 L 694.55908203125 544 Q 704.55908203125 544 704.55908203125 554 L 704.55908203125 573 Q 704.55908203125 583 694.55908203125 583 L 577 583 Q 567 583 567 573 L 567 554 Q 567 544 577 544 Z" stroke-miterlimit="10"/></g><g transform="translate(-374,-182) scale(1,1)"><g><path fill="none" stroke="none"/><text fill="#000000" stroke="none" font-family="bahnschrift" font-size="13px" font-style="normal" font-weight="bold" text-decoration="none" x="583.493896484375" y="563.5">Xác nhận giỏ sách</text></g></g><g transform="translate(-374,-182) scale(1,1)"><path fill="#C0C0C0" stroke="none" d="M 598 655 L 687.34375 655 Q 697.34375 655 697.34375 665 L 697.34375 684 Q 697.34375 694 687.34375 694 L 598 694 Q 588 694 588 684 L 588 665 Q 588 655 598 655 Z" opacity="0.2"/></g><g transform="translate(-374,-182) scale(1,1)"><path fill="#ffffff" stroke="none" d="M 591 648 L 680.34375 648 Q 690.34375 648 690.34375 658 L 690.34375 677 Q 690.34375 687 680.34375 687 L 591 687 Q 581 687 581 677 L 581 658 Q 581 648 591 648 Z"/></g><g transform="translate(-374,-182) scale(1,1)"><path fill="none" stroke="#243f60" d="M 591 648 L 680.34375 648 Q 690.34375 648 690.34375 658 L 690.34375 677 Q 690.34375 687 680.34375 687 L 591 687 Q 581 687 581 677 L 581 658 Q 581 648 591 648 Z" stroke-miterlimit="10"/></g><g transform="translate(-374,-182) scale(1,1)"><g><path fill="none" stroke="none"/><text fill="#000000" stroke="none" font-family="bahnschrift" font-size="13px" font-style="normal" font-weight="bold" text-decoration="none" x="585.5" y="667.5">Mượn thành công</text></g></g><g transform="translate(-374,-182) scale(1,1)"><path fill="none" stroke="#243f60" d="M 635 232 L 635 327" stroke-miterlimit="10"/></g><g transform="translate(-374,-182) scale(1,1)"><path fill="none" stroke="#243f60" d="M 630.790482243984 316.83732514237585 L 635 327 L 639.209517756016 316.83732514237585" stroke-miterlimit="10"/></g><g transform="translate(-374,-182) scale(1,1)"><g><path fill="none" stroke="none"/><text fill="#000000" stroke="none" font-family="bahnschrift" font-size="13px" font-style="normal" font-weight="normal" text-decoration="none" x="502.5" y="281.5">Đăng nhập tài khoản</text></g></g><g transform="translate(-374,-182) scale(1,1)"><path fill="none" stroke="#243f60" d="M 635 368 L 635 407" stroke-miterlimit="10"/></g><g transform="translate(-374,-182) scale(1,1)"><path fill="none" stroke="#243f60" d="M 630.790482243984 396.83732514237585 L 635 407 L 639.209517756016 396.83732514237585" stroke-miterlimit="10"/></g><g transform="translate(-374,-182) scale(1,1)"><g><path fill="none" stroke="none"/><text fill="#000000" stroke="none" font-family="bahnschrift" font-size="13px" font-style="normal" font-weight="normal" text-decoration="none" x="520.274169921875" y="391.5">Thỏa mãn yêu cầu</text></g></g><g transform="translate(-374,-182) scale(1,1)"><path fill="none" stroke="#243f60" d="M 635 448 L 635 543" stroke-miterlimit="10"/></g><g transform="translate(-374,-182) scale(1,1)"><path fill="none" stroke="#243f60" d="M 630.790482243984 532.8373251423759 L 635 543 L 639.209517756016 532.8373251423759" stroke-miterlimit="10"/></g><g transform="translate(-374,-182) scale(1,1)"><g><path fill="none" stroke="none"/><text fill="#000000" stroke="none" font-family="bahnschrift" font-size="13px" font-style="normal" font-weight="normal" text-decoration="none" x="643.141357421875" y="476.5">Chọn tài liệu</text></g></g><g transform="translate(-374,-182) scale(1,1)"><path fill="none" stroke="#243f60" d="M 635 584 L 635 647" stroke-miterlimit="10"/></g><g transform="translate(-374,-182) scale(1,1)"><path fill="none" stroke="#243f60" d="M 630.790482243984 636.8373251423759 L 635 647 L 639.209517756016 636.8373251423759" stroke-miterlimit="10"/></g><g transform="translate(-374,-182) scale(1,1)"><path fill="#C0C0C0" stroke="none" d="M 391 675.5 C 391 668.59644 396.59644 663 403.5 663 C 410.40356 663 416 668.59644 416 675.5 C 416 682.40356 410.40356 688 403.5 688 C 396.59644 688 391 682.40356 391 675.5 Z" opacity="0.2"/></g><g transform="translate(-374,-182) scale(1,1)"><path fill="none" stroke="#243f60" d="M 384 668.5 C 384 661.59644 389.59644 656 396.5 656 C 403.40356 656 409 661.59644 409 668.5 C 409 675.40356 403.40356 681 396.5 681 C 389.59644 681 384 675.40356 384 668.5 Z" stroke-miterlimit="10"/></g><g transform="translate(-374,-182) scale(1,1)"><path fill="#243f60" stroke="none" d="M 389 668.5 C 389 664.357864 392.357864 661 396.5 661 C 400.642136 661 404 664.357864 404 668.5 C 404 672.642136 400.642136 676 396.5 676 C 392.357864 676 389 672.642136 389 668.5 Z"/></g><g transform="translate(-374,-182) scale(1,1)"><path fill="none" stroke="#243f60" d="M 580 667 L 410 668" stroke-miterlimit="10"/></g><g transform="translate(-374,-182) scale(1,1)"><path fill="none" stroke="#243f60" d="M 420.1377375966043 663.7307756650189 L 410 668 L 420.18726047812055 672.1496655227769" stroke-miterlimit="10"/></g><g transform="translate(-374,-182) scale(1,1)"><path fill="#C0C0C0" stroke="none" d="M 391 354.5 C 391 347.59644 396.59644 342 403.5 342 C 410.40356 342 416 347.59644 416 354.5 C 416 361.40356 410.40356 367 403.5 367 C 396.59644 367 391 361.40356 391 354.5 Z" opacity="0.2"/></g><g transform="translate(-374,-182) scale(1,1)"><path fill="none" stroke="#243f60" d="M 384 347.5 C 384 340.59644 389.59644 335 396.5 335 C 403.40356 335 409 340.59644 409 347.5 C 409 354.40356 403.40356 360 396.5 360 C 389.59644 360 384 354.40356 384 347.5 Z" stroke-miterlimit="10"/></g><g transform="translate(-374,-182) scale(1,1)"><path fill="#243f60" stroke="none" d="M 389 347.5 C 389 343.357864 392.357864 340 396.5 340 C 400.642136 340 404 343.357864 404 347.5 C 404 351.642136 400.642136 355 396.5 355 C 392.357864 355 389 351.642136 389 347.5 Z"/></g><g transform="translate(-374,-182) scale(1,1)"><path fill="none" stroke="#243f60" d="M 613 543 L 410 360" stroke-miterlimit="10"/></g><g transform="translate(-374,-182) scale(1,1)"><path fill="none" stroke="#243f60" d="M 420.36687826659465 363.6780205281655 L 410 360 L 414.72973666523535 369.9312431788537" stroke-miterlimit="10"/></g><g transform="translate(-374,-182) scale(1,1)"><g><path fill="none" stroke="none"/><text fill="#000000" stroke="none" font-family="bahnschrift" font-size="13px" font-style="normal" font-weight="normal" text-decoration="none" x="437.516357421875" y="500.5">Trạng thái No</text></g></g><g transform="translate(-374,-182) scale(1,1)"><path fill="none" stroke="#243f60" d="M 562 347 L 410 347" stroke-miterlimit="10"/></g><g transform="translate(-374,-182) scale(1,1)"><path fill="none" stroke="#243f60" d="M 420.16267485762415 342.790482243984 L 410 347 L 420.16267485762415 351.209517756016" stroke-miterlimit="10"/></g><g transform="translate(-374,-182) scale(1,1)"><g><path fill="none" stroke="none"/><text fill="#000000" stroke="none" font-family="bahnschrift" font-size="13px" font-style="normal" font-weight="normal" text-decoration="none" x="432.82373046875" y="331.5">Không thỏa mãn</text></g></g><g transform="translate(-374,-182) scale(1,1)"><path fill="#C0C0C0" stroke="none" d="M 919 355.5 C 919 348.59644 924.59644 343 931.5 343 C 938.40356 343 944 348.59644 944 355.5 C 944 362.40356 938.40356 368 931.5 368 C 924.59644 368 919 362.40356 919 355.5 Z" opacity="0.2"/></g><g transform="translate(-374,-182) scale(1,1)"><path fill="none" stroke="#243f60" d="M 912 348.5 C 912 341.59644 917.59644 336 924.5 336 C 931.40356 336 937 341.59644 937 348.5 C 937 355.40356 931.40356 361 924.5 361 C 917.59644 361 912 355.40356 912 348.5 Z" stroke-miterlimit="10"/></g><g transform="translate(-374,-182) scale(1,1)"><path fill="#243f60" stroke="none" d="M 917 348.5 C 917 344.357864 920.357864 341 924.5 341 C 928.642136 341 932 344.357864 932 348.5 C 932 352.642136 928.642136 356 924.5 356 C 920.357864 356 917 352.642136 917 348.5 Z"/></g><g transform="translate(-374,-182) scale(1,1)"><path fill="none" stroke="#243f60" d="M 709 347 L 911 348" stroke-miterlimit="10"/></g><g transform="translate(-374,-182) scale(1,1)"><path fill="none" stroke="#243f60" d="M 900.8166107290027 352.15915651969704 L 911 348 L 900.8582886119215 343.7402241701095" stroke-miterlimit="10"/></g><g transform="translate(-374,-182) scale(1,1)"><g><path fill="none" stroke="none"/><text fill="#000000" stroke="none" font-family="bahnschrift" font-size="13px" font-style="normal" font-weight="normal" text-decoration="none" x="799.6904296875" y="338.5">hủy</text></g></g><g transform="translate(-374,-182) scale(1,1)"><path fill="none" stroke="#243f60" d="M 702 409 L 911 352" stroke-miterlimit="10"/></g><g transform="translate(-374,-182) scale(1,1)"><path fill="none" stroke="#243f60" d="M 902.3030163619607 358.7351670803088 L 911 352 L 900.0878215787632 350.6127862085847" stroke-miterlimit="10"/></g><g transform="translate(-374,-182) scale(1,1)"><g><path fill="none" stroke="none"/><text fill="#000000" stroke="none" font-family="bahnschrift" font-size="13px" font-style="normal" font-weight="normal" text-decoration="none" x="791.6904296875" y="371.5">hủy</text></g></g><g transform="translate(-374,-182) scale(1,1)"><path fill="none" stroke="#243f60" d="M 679 232 L 911 342" stroke-miterlimit="10"/></g><g transform="translate(-374,-182) scale(1,1)"><path fill="none" stroke="#243f60" d="M 900.0137722435132 341.4497276287153 L 911 342 L 903.6206651789633 333.84246252849334" stroke-miterlimit="10"/></g><g transform="translate(-374,-182) scale(1,1)"><g><path fill="none" stroke="none"/><text fill="#000000" stroke="none" font-family="bahnschrift" font-size="13px" font-style="normal" font-weight="normal" text-decoration="none" x="790.6904296875" y="279.5">hủy</text></g></g><g transform="translate(-374,-182) scale(1,1)"><path fill="none" stroke="#243f60" d="M 662 543 L 911 358" stroke-miterlimit="10"/></g><g transform="translate(-374,-182) scale(1,1)"><path fill="none" stroke="#243f60" d="M 905.3529096898956 367.4398289724721 L 911 358 L 900.3319370680761 360.68187122742853" stroke-miterlimit="10"/></g><g transform="translate(-374,-182) scale(1,1)"><g><path fill="none" stroke="none"/><text fill="#000000" stroke="none" font-family="bahnschrift" font-size="13px" font-style="normal" font-weight="normal" text-decoration="none" x="766.6904296875" y="443.5">hủy</text></g></g></g></svg>