<svg version="1.1" xmlns="http://www.w3.org/2000/svg" xmlns:xlink="http://www.w3.org/1999/xlink" width="566" height="489"><defs/><g><g transform="translate(-437,-182) scale(1,1)"><path fill="#C0C0C0" stroke="none" d="M 648 285 L 779.93017578125 285 Q 789.93017578125 285 789.93017578125 295 L 789.93017578125 314 Q 789.93017578125 324 779.93017578125 324 L 648 324 Q 638 324 638 314 L 638 295 Q 638 285 648 285 Z" opacity="0.2"/></g><g transform="translate(-437,-182) scale(1,1)"><path fill="#ffffff" stroke="none" d="M 641 278 L 772.93017578125 278 Q 782.93017578125 278 782.93017578125 288 L 782.93017578125 307 Q 782.93017578125 317 772.93017578125 317 L 641 317 Q 631 317 631 307 L 631 288 Q 631 278 641 278 Z"/></g><g transform="translate(-437,-182) scale(1,1)"><path fill="none" stroke="#243f60" d="M 641 278 L 772.93017578125 278 Q 782.93017578125 278 782.93017578125 288 L 782.93017578125 307 Q 782.93017578125 317 772.93017578125 317 L 641 317 Q 631 317 631 307 L 631 288 Q 631 278 641 278 Z" stroke-miterlimit="10"/></g><g transform="translate(-437,-182) scale(1,1)"><g><path fill="none" stroke="none"/><text fill="#000000" stroke="none" font-family="bahnschrift" font-size="13px" font-style="normal" font-weight="bold" text-decoration="none" x="640.384521484375" y="297.5">Kiểm tra sách được trả</text></g></g><g transform="translate(-437,-182) scale(1,1)"><path fill="#C0C0C0" stroke="none" d="M 641 371 L 785.98095703125 371 Q 795.98095703125 371 795.98095703125 381 L 795.98095703125 400 Q 795.98095703125 410 785.98095703125 410 L 641 410 Q 631 410 631 400 L 631 381 Q 631 371 641 371 Z" opacity="0.2"/></g><g transform="translate(-437,-182) scale(1,1)"><path fill="#ffffff" stroke="none" d="M 634 364 L 778.98095703125 364 Q 788.98095703125 364 788.98095703125 374 L 788.98095703125 393 Q 788.98095703125 403 778.98095703125 403 L 634 403 Q 624 403 624 393 L 624 374 Q 624 364 634 364 Z"/></g><g transform="translate(-437,-182) scale(1,1)"><path fill="none" stroke="#243f60" d="M 634 364 L 778.98095703125 364 Q 788.98095703125 364 788.98095703125 374 L 788.98095703125 393 Q 788.98095703125 403 778.98095703125 403 L 634 403 Q 624 403 624 393 L 624 374 Q 624 364 634 364 Z" stroke-miterlimit="10"/></g><g transform="translate(-437,-182) scale(1,1)"><g><path fill="none" stroke="none"/><text fill="#000000" stroke="none" font-family="bahnschrift" font-size="13px" font-style="normal" font-weight="bold" text-decoration="none" x="634.533447265625" y="383.5">Hiển thị thông tin độc giả</text></g></g><g transform="translate(-437,-182) scale(1,1)"><path fill="#C0C0C0" stroke="none" d="M 577 457 L 849.5751953125 457 Q 859.5751953125 457 859.5751953125 467 L 859.5751953125 486 Q 859.5751953125 496 849.5751953125 496 L 577 496 Q 567 496 567 486 L 567 467 Q 567 457 577 457 Z" opacity="0.2"/></g><g transform="translate(-437,-182) scale(1,1)"><path fill="#ffffff" stroke="none" d="M 570 450 L 842.5751953125 450 Q 852.5751953125 450 852.5751953125 460 L 852.5751953125 479 Q 852.5751953125 489 842.5751953125 489 L 570 489 Q 560 489 560 479 L 560 460 Q 560 450 570 450 Z"/></g><g transform="translate(-437,-182) scale(1,1)"><path fill="none" stroke="#243f60" d="M 570 450 L 842.5751953125 450 Q 852.5751953125 450 852.5751953125 460 L 852.5751953125 479 Q 852.5751953125 489 842.5751953125 489 L 570 489 Q 560 489 560 479 L 560 460 Q 560 450 570 450 Z" stroke-miterlimit="10"/></g><g transform="translate(-437,-182) scale(1,1)"><g><path fill="none" stroke="none"/><text fill="#000000" stroke="none" font-family="bahnschrift" font-size="13px" font-style="normal" font-weight="bold" text-decoration="none" x="622.81591796875" y="469.5">Chuyển sang quá trình mượn</text></g></g><g transform="translate(-437,-182) scale(1,1)"><path fill="#C0C0C0" stroke="none" d="M 646 543 L 780.93896484375 543 Q 790.93896484375 543 790.93896484375 553 L 790.93896484375 572 Q 790.93896484375 582 780.93896484375 582 L 646 582 Q 636 582 636 572 L 636 553 Q 636 543 646 543 Z" opacity="0.2"/></g><g transform="translate(-437,-182) scale(1,1)"><path fill="#ffffff" stroke="none" d="M 639 536 L 773.93896484375 536 Q 783.93896484375 536 783.93896484375 546 L 783.93896484375 565 Q 783.93896484375 575 773.93896484375 575 L 639 575 Q 629 575 629 565 L 629 546 Q 629 536 639 536 Z"/></g><g transform="translate(-437,-182) scale(1,1)"><path fill="none" stroke="#243f60" d="M 639 536 L 773.93896484375 536 Q 783.93896484375 536 783.93896484375 546 L 783.93896484375 565 Q 783.93896484375 575 773.93896484375 575 L 639 575 Q 629 575 629 565 L 629 546 Q 629 536 639 536 Z" stroke-miterlimit="10"/></g><g transform="translate(-437,-182) scale(1,1)"><g><path fill="none" stroke="none"/><text fill="#000000" stroke="none" font-family="bahnschrift" font-size="13px" font-style="normal" font-weight="bold" text-decoration="none" x="638.36865234375" y="555.5">Nhập vào ngày trả sách</text></g></g><g transform="translate(-437,-182) scale(1,1)"><path fill="none" stroke="#243f60" d="M 706 318 L 706 363" stroke-miterlimit="10"/></g><g transform="translate(-437,-182) scale(1,1)"><path fill="none" stroke="#243f60" d="M 701.790482243984 352.83732514237585 L 706 363 L 710.209517756016 352.83732514237585" stroke-miterlimit="10"/></g><g transform="translate(-437,-182) scale(1,1)"><g><path fill="none" stroke="none"/><text fill="#000000" stroke="none" font-family="bahnschrift" font-size="13px" font-style="normal" font-weight="normal" text-decoration="none" x="711.5" y="336.5">Hợp</text><text fill="#000000" stroke="none" font-family="bahnschrift" font-size="13px" font-style="normal" font-weight="normal" text-decoration="none" x="717.647705078125" y="349.5">lệ</text></g></g><g transform="translate(-437,-182) scale(1,1)"><path fill="none" stroke="#243f60" d="M 706 490 L 706 535" stroke-miterlimit="10"/></g><g transform="translate(-437,-182) scale(1,1)"><path fill="none" stroke="#243f60" d="M 701.790482243984 524.8373251423759 L 706 535 L 710.209517756016 524.8373251423759" stroke-miterlimit="10"/></g><g transform="translate(-437,-182) scale(1,1)"><path fill="#C0C0C0" stroke="none" d="M 636 629 L 790.4326171875 629 Q 800.4326171875 629 800.4326171875 639 L 800.4326171875 658 Q 800.4326171875 668 790.4326171875 668 L 636 668 Q 626 668 626 658 L 626 639 Q 626 629 636 629 Z" opacity="0.2"/></g><g transform="translate(-437,-182) scale(1,1)"><path fill="#ffffff" stroke="none" d="M 629 622 L 783.4326171875 622 Q 793.4326171875 622 793.4326171875 632 L 793.4326171875 651 Q 793.4326171875 661 783.4326171875 661 L 629 661 Q 619 661 619 651 L 619 632 Q 619 622 629 622 Z"/></g><g transform="translate(-437,-182) scale(1,1)"><path fill="none" stroke="#243f60" d="M 629 622 L 783.4326171875 622 Q 793.4326171875 622 793.4326171875 632 L 793.4326171875 651 Q 793.4326171875 661 783.4326171875 661 L 629 661 Q 619 661 619 651 L 619 632 Q 619 622 629 622 Z" stroke-miterlimit="10"/></g><g transform="translate(-437,-182) scale(1,1)"><g><path fill="none" stroke="none"/><text fill="#000000" stroke="none" font-family="bahnschrift" font-size="13px" font-style="normal" font-weight="bold" text-decoration="none" x="628.80029296875" y="641.5">Xác nhận hoàn tất trả sách</text></g></g><g transform="translate(-437,-182) scale(1,1)"><path fill="#C0C0C0" stroke="none" d="M 693 199 L 734.75537109375 199 Q 744.75537109375 199 744.75537109375 209 L 744.75537109375 228 Q 744.75537109375 238 734.75537109375 238 L 693 238 Q 683 238 683 228 L 683 209 Q 683 199 693 199 Z" opacity="0.2"/></g><g transform="translate(-437,-182) scale(1,1)"><path fill="#ffffff" stroke="none" d="M 686 192 L 727.75537109375 192 Q 737.75537109375 192 737.75537109375 202 L 737.75537109375 221 Q 737.75537109375 231 727.75537109375 231 L 686 231 Q 676 231 676 221 L 676 202 Q 676 192 686 192 Z"/></g><g transform="translate(-437,-182) scale(1,1)"><path fill="none" stroke="#243f60" d="M 686 192 L 727.75537109375 192 Q 737.75537109375 192 737.75537109375 202 L 737.75537109375 221 Q 737.75537109375 231 727.75537109375 231 L 686 231 Q 676 231 676 221 L 676 202 Q 676 192 686 192 Z" stroke-miterlimit="10"/></g><g transform="translate(-437,-182) scale(1,1)"><g><path fill="none" stroke="none"/><text fill="#000000" stroke="none" font-family="bahnschrift" font-size="13px" font-style="normal" font-weight="bold" text-decoration="none" x="682.324951171875" y="211.5">Trả sách</text></g></g><g transform="translate(-437,-182) scale(1,1)"><path fill="none" stroke="#243f60" d="M 706 232 L 706 277" stroke-miterlimit="10"/></g><g transform="translate(-437,-182) scale(1,1)"><path fill="none" stroke="#243f60" d="M 701.790482243984 266.83732514237585 L 706 277 L 710.209517756016 266.83732514237585" stroke-miterlimit="10"/></g><g transform="translate(-437,-182) scale(1,1)"><path fill="none" stroke="#243f60" d="M 706 576 L 706 621" stroke-miterlimit="10"/></g><g transform="translate(-437,-182) scale(1,1)"><path fill="none" stroke="#243f60" d="M 701.790482243984 610.8373251423759 L 706 621 L 710.209517756016 610.8373251423759" stroke-miterlimit="10"/></g><g transform="translate(-437,-182) scale(1,1)"><path fill="#C0C0C0" stroke="none" d="M 454 648.5 C 454 641.59644 459.59644 636 466.5 636 C 473.40356 636 479 641.59644 479 648.5 C 479 655.40356 473.40356 661 466.5 661 C 459.59644 661 454 655.40356 454 648.5 Z" opacity="0.2"/></g><g transform="translate(-437,-182) scale(1,1)"><path fill="none" stroke="#243f60" d="M 447 641.5 C 447 634.59644 452.59644 629 459.5 629 C 466.40356 629 472 634.59644 472 641.5 C 472 648.40356 466.40356 654 459.5 654 C 452.59644 654 447 648.40356 447 641.5 Z" stroke-miterlimit="10"/></g><g transform="translate(-437,-182) scale(1,1)"><path fill="#243f60" stroke="none" d="M 452 641.5 C 452 637.357864 455.357864 634 459.5 634 C 463.642136 634 467 637.357864 467 641.5 C 467 645.642136 463.642136 649 459.5 649 C 455.357864 649 452 645.642136 452 641.5 Z"/></g><g transform="translate(-437,-182) scale(1,1)"><path fill="none" stroke="#243f60" d="M 618 641 L 473 641" stroke-miterlimit="10"/></g><g transform="translate(-437,-182) scale(1,1)"><path fill="none" stroke="#243f60" d="M 483.16267485762415 636.790482243984 L 473 641 L 483.16267485762415 645.209517756016" stroke-miterlimit="10"/></g><g transform="translate(-437,-182) scale(1,1)"><path fill="#C0C0C0" stroke="none" d="M 471 304.5 C 471 297.59644 476.59644 292 483.5 292 C 490.40356 292 496 297.59644 496 304.5 C 496 311.40356 490.40356 317 483.5 317 C 476.59644 317 471 311.40356 471 304.5 Z" opacity="0.2"/></g><g transform="translate(-437,-182) scale(1,1)"><path fill="none" stroke="#243f60" d="M 464 297.5 C 464 290.59644 469.59644 285 476.5 285 C 483.40356 285 489 290.59644 489 297.5 C 489 304.40356 483.40356 310 476.5 310 C 469.59644 310 464 304.40356 464 297.5 Z" stroke-miterlimit="10"/></g><g transform="translate(-437,-182) scale(1,1)"><path fill="#243f60" stroke="none" d="M 469 297.5 C 469 293.357864 472.357864 290 476.5 290 C 480.642136 290 484 293.357864 484 297.5 C 484 301.642136 480.642136 305 476.5 305 C 472.357864 305 469 301.642136 469 297.5 Z"/></g><g transform="translate(-437,-182) scale(1,1)"><path fill="none" stroke="#243f60" d="M 630 297 L 490 297" stroke-miterlimit="10"/></g><g transform="translate(-437,-182) scale(1,1)"><path fill="none" stroke="#243f60" d="M 500.16267485762415 292.790482243984 L 490 297 L 500.16267485762415 301.209517756016" stroke-miterlimit="10"/></g><g transform="translate(-437,-182) scale(1,1)"><g><path fill="none" stroke="none"/><text fill="#000000" stroke="none" font-family="bahnschrift" font-size="13px" font-style="normal" font-weight="normal" text-decoration="none" x="521.388671875" y="318.5">Không hợp lệ</text></g></g><g transform="translate(-437,-182) scale(1,1)"><path fill="#C0C0C0" stroke="none" d="M 975 475.5 C 975 468.59644 980.59644 463 987.5 463 C 994.40356 463 1000 468.59644 1000 475.5 C 1000 482.40356 994.40356 488 987.5 488 C 980.59644 488 975 482.40356 975 475.5 Z" opacity="0.2"/></g><g transform="translate(-437,-182) scale(1,1)"><path fill="none" stroke="#243f60" d="M 968 468.5 C 968 461.59644 973.59644 456 980.5 456 C 987.40356 456 993 461.59644 993 468.5 C 993 475.40356 987.40356 481 980.5 481 C 973.59644 481 968 475.40356 968 468.5 Z" stroke-miterlimit="10"/></g><g transform="translate(-437,-182) scale(1,1)"><path fill="#243f60" stroke="none" d="M 973 468.5 C 973 464.357864 976.357864 461 980.5 461 C 984.642136 461 988 464.357864 988 468.5 C 988 472.642136 984.642136 476 980.5 476 C 976.357864 476 973 472.642136 973 468.5 Z"/></g><g transform="translate(-437,-182) scale(1,1)"><path fill="none" stroke="#243f60" d="M 728 232 L 967 456" stroke-miterlimit="10"/></g><g transform="translate(-437,-182) scale(1,1)"><path fill="none" stroke="#243f60" d="M 956.706348328054 452.1217613203102 L 967 456 L 962.4636179690633 445.97896023012606" stroke-miterlimit="10"/></g><g transform="translate(-437,-182) scale(1,1)"><g><path fill="none" stroke="none"/><text fill="#000000" stroke="none" font-family="bahnschrift" font-size="13px" font-style="normal" font-weight="normal" text-decoration="none" x="846.6904296875" y="339.5">huỷ</text></g></g><g transform="translate(-437,-182) scale(1,1)"><path fill="none" stroke="#243f60" d="M 740 318 L 967 460" stroke-miterlimit="10"/></g><g transform="translate(-437,-182) scale(1,1)"><path fill="none" stroke="#243f60" d="M 956.1517489962098 458.1791622371107 L 967 460 L 960.6166548807857 451.0416014216266" stroke-miterlimit="10"/></g><g transform="translate(-437,-182) scale(1,1)"><g><path fill="none" stroke="none"/><text fill="#000000" stroke="none" font-family="bahnschrift" font-size="13px" font-style="normal" font-weight="normal" text-decoration="none" x="849.6904296875" y="382.5">huỷ</text></g></g><g transform="translate(-437,-182) scale(1,1)"><path fill="none" stroke="#243f60" d="M 854 468 L 967 468" stroke-miterlimit="10"/></g><g transform="translate(-437,-182) scale(1,1)"><path fill="none" stroke="#243f60" d="M 956.8373251423759 472.209517756016 L 967 468 L 956.8373251423758 463.790482243984" stroke-miterlimit="10"/></g><g transform="translate(-437,-182) scale(1,1)"><g><path fill="none" stroke="none"/><text fill="#000000" stroke="none" font-family="bahnschrift" font-size="13px" font-style="normal" font-weight="normal" text-decoration="none" x="878.6904296875" y="459.5">huỷ</text></g></g><g transform="translate(-437,-182) scale(1,1)"><path fill="none" stroke="#243f60" d="M 769 535 L 967 472" stroke-miterlimit="10"/></g><g transform="translate(-437,-182) scale(1,1)"><path fill="none" stroke="#243f60" d="M 958.5920663132737 479.09271817567935 L 967 472 L 956.0393839552811 471.0700021934169" stroke-miterlimit="10"/></g><g transform="translate(-437,-182) scale(1,1)"><g><path fill="none" stroke="none"/><text fill="#000000" stroke="none" font-family="bahnschrift" font-size="13px" font-style="normal" font-weight="normal" text-decoration="none" x="854.6904296875" y="524.5">huỷ</text></g></g><g transform="translate(-437,-182) scale(1,1)"><path fill="none" stroke="#243f60" d="M 774 404 L 967 464" stroke-miterlimit="10"/></g><g transform="translate(-437,-182) scale(1,1)"><path fill="none" stroke="#243f60" d="M 956.0458044378418 465.002795884511 L 967 464 L 958.5451302654707 456.963297805638" stroke-miterlimit="10"/></g><g transform="translate(-437,-182) scale(1,1)"><g><path fill="none" stroke="none"/><text fill="#000000" stroke="none" font-family="bahnschrift" font-size="13px" font-style="normal" font-weight="normal" text-decoration="none" x="863.6904296875" y="425.5">huỷ</text></g></g><g transform="translate(-437,-182) scale(1,1)"><path fill="none" stroke="#243f60" d="M 706 404 L 706 449" stroke-miterlimit="10"/></g><g transform="translate(-437,-182) scale(1,1)"><path fill="none" stroke="#243f60" d="M 701.790482243984 438.83732514237585 L 706 449 L 710.209517756016 438.83732514237585" stroke-miterlimit="10"/></g></g></svg>