<?xml version="1.0" encoding="UTF-8" ?>
<!DOCTYPE svg PUBLIC "-//W3C//DTD SVG 1.1//EN" "http://www.w3.org/Graphics/SVG/1.1/DTD/svg11.dtd">
<svg width="144pt" height="144pt" viewBox="0 0 144 144" version="1.1" xmlns="http://www.w3.org/2000/svg">
<g id="#ffffffff">
<path fill="#ffffff" opacity="1.00" d=" M 0.00 0.00 L 144.00 0.00 L 144.00 144.00 L 0.00 144.00 L 0.00 0.00 M 9.07 56.70 C 5.05 57.73 6.61 62.52 6.50 65.51 C 10.45 65.60 14.41 65.78 18.31 66.53 C 18.66 76.66 18.01 86.82 18.59 96.93 C 20.37 101.48 26.84 101.05 30.54 99.26 C 30.51 88.34 30.40 77.41 30.58 66.49 C 34.05 65.91 37.58 65.77 41.07 65.40 C 43.85 63.86 42.29 60.17 42.75 57.61 C 39.08 55.83 34.92 56.67 31.00 56.52 C 23.69 56.69 16.37 56.22 9.07 56.70 M 50.41 58.89 C 50.27 71.94 50.23 85.00 50.43 98.05 C 53.34 101.24 57.93 100.76 61.63 99.42 C 61.71 90.86 61.54 82.30 61.65 73.74 C 66.28 80.90 69.22 88.97 73.53 96.30 C 75.57 99.94 80.09 100.84 83.93 100.39 C 86.29 100.35 89.38 99.02 88.76 96.13 C 88.62 83.75 89.04 71.35 88.55 58.98 C 86.19 55.25 80.94 56.22 77.54 57.77 C 77.25 66.05 77.72 74.34 77.35 82.61 C 73.80 77.32 71.48 71.35 68.57 65.71 C 66.89 62.43 65.32 58.53 61.62 57.08 C 57.84 55.61 53.66 56.69 50.41 58.89 M 97.53 75.01 C 97.21 79.64 97.26 84.48 99.29 88.75 C 102.41 95.97 110.06 101.00 117.97 100.61 C 122.66 100.41 128.21 101.60 131.98 98.06 C 134.75 95.93 133.58 91.93 132.16 89.34 C 128.55 90.37 124.90 91.66 121.08 91.47 C 115.83 91.58 110.79 87.21 110.46 81.91 C 110.17 77.11 109.76 71.31 113.91 67.92 C 118.99 63.05 126.39 66.40 132.19 67.87 C 132.96 65.76 134.23 63.44 133.24 61.18 C 131.61 58.77 129.05 56.63 126.03 56.48 C 121.72 56.21 117.37 56.13 113.08 56.63 C 104.72 58.64 98.22 66.46 97.53 75.01 Z" />
</g>
<g id="#6759a6ff">
<path fill="#6759a6" opacity="1.00" d=" M 9.07 56.70 C 16.37 56.22 23.69 56.69 31.00 56.52 C 34.92 56.67 39.08 55.83 42.75 57.61 C 42.29 60.17 43.85 63.86 41.07 65.40 C 37.58 65.77 34.05 65.91 30.58 66.49 C 30.40 77.41 30.51 88.34 30.54 99.26 C 26.84 101.05 20.37 101.48 18.59 96.93 C 18.01 86.82 18.66 76.66 18.31 66.53 C 14.41 65.78 10.45 65.60 6.50 65.51 C 6.61 62.52 5.05 57.73 9.07 56.70 Z" />
<path fill="#6759a6" opacity="1.00" d=" M 50.41 58.89 C 53.66 56.69 57.84 55.61 61.62 57.08 C 65.32 58.53 66.89 62.43 68.57 65.71 C 71.48 71.35 73.80 77.32 77.35 82.61 C 77.72 74.34 77.25 66.05 77.54 57.77 C 80.94 56.22 86.19 55.25 88.55 58.98 C 89.04 71.35 88.62 83.75 88.76 96.13 C 89.38 99.02 86.29 100.35 83.93 100.39 C 80.09 100.84 75.57 99.94 73.53 96.30 C 69.22 88.97 66.28 80.90 61.65 73.74 C 61.54 82.30 61.71 90.86 61.63 99.42 C 57.93 100.76 53.34 101.24 50.43 98.05 C 50.23 85.00 50.27 71.94 50.41 58.89 Z" />
<path fill="#6759a6" opacity="1.00" d=" M 97.53 75.01 C 98.22 66.46 104.72 58.64 113.08 56.63 C 117.37 56.13 121.72 56.21 126.03 56.48 C 129.05 56.63 131.61 58.77 133.24 61.18 C 134.23 63.44 132.96 65.76 132.19 67.87 C 126.39 66.40 118.99 63.05 113.91 67.92 C 109.76 71.31 110.17 77.11 110.46 81.91 C 110.79 87.21 115.83 91.58 121.08 91.47 C 124.90 91.66 128.55 90.37 132.16 89.34 C 133.58 91.93 134.75 95.93 131.98 98.06 C 128.21 101.60 122.66 100.41 117.97 100.61 C 110.06 101.00 102.41 95.97 99.29 88.75 C 97.26 84.48 97.21 79.64 97.53 75.01 Z" />
</g>
</svg>
